<mxfile host="Electron" agent="Mozilla/5.0 (Windows NT 10.0; Win64; x64) AppleWebKit/537.36 (KHTML, like Gecko) draw.io/27.0.9 Chrome/134.0.6998.205 Electron/35.4.0 Safari/537.36" version="27.0.9">
  <diagram name="ページ1" id="45Rc4nHdbYat4-AlLQno">
    <mxGraphModel dx="2098" dy="2537" grid="0" gridSize="10" guides="1" tooltips="1" connect="1" arrows="1" fold="1" page="1" pageScale="1" pageWidth="827" pageHeight="1169" math="0" shadow="0">
      <root>
        <mxCell id="0" />
        <mxCell id="1" parent="0" />
        <mxCell id="TTbmBz7x6POpJ1Bqss9g-82" value="" style="rounded=0;whiteSpace=wrap;html=1;fillColor=none;" vertex="1" parent="1">
          <mxGeometry x="33" y="-1110" width="1515" height="1246" as="geometry" />
        </mxCell>
        <mxCell id="08P-bwt3jYYdELrY3Ced-1" value="ap-northeast-1a" style="fillColor=none;strokeColor=#147EBA;dashed=1;verticalAlign=top;fontStyle=0;fontColor=#147EBA;whiteSpace=wrap;html=1;rounded=0;fontSize=14;" parent="1" vertex="1">
          <mxGeometry x="753" y="-612" width="400" height="580" as="geometry" />
        </mxCell>
        <mxCell id="TTbmBz7x6POpJ1Bqss9g-19" value="Private subnet" style="points=[[0,0],[0.25,0],[0.5,0],[0.75,0],[1,0],[1,0.25],[1,0.5],[1,0.75],[1,1],[0.75,1],[0.5,1],[0.25,1],[0,1],[0,0.75],[0,0.5],[0,0.25]];outlineConnect=0;gradientColor=none;html=1;whiteSpace=wrap;fontSize=14;fontStyle=0;container=1;pointerEvents=0;collapsible=0;recursiveResize=0;shape=mxgraph.aws4.group;grIcon=mxgraph.aws4.group_security_group;grStroke=0;strokeColor=#00A4A6;fillColor=#E6F6F7;verticalAlign=top;align=left;spacingLeft=30;fontColor=#147EBA;dashed=0;" vertex="1" parent="1">
          <mxGeometry x="793" y="-218" width="349" height="161" as="geometry" />
        </mxCell>
        <mxCell id="KJmp3X2AXbq6B-Z1RPYA-1" value="ap-northeast-1" style="points=[[0,0],[0.25,0],[0.5,0],[0.75,0],[1,0],[1,0.25],[1,0.5],[1,0.75],[1,1],[0.75,1],[0.5,1],[0.25,1],[0,1],[0,0.75],[0,0.5],[0,0.25]];outlineConnect=0;gradientColor=none;html=1;whiteSpace=wrap;fontSize=14;fontStyle=0;container=1;pointerEvents=0;collapsible=0;recursiveResize=0;shape=mxgraph.aws4.group;grIcon=mxgraph.aws4.group_region;strokeColor=#00A4A6;fillColor=none;verticalAlign=top;align=left;spacingLeft=30;fontColor=#147EBA;dashed=1;rounded=0;strokeWidth=2;" parent="1" vertex="1">
          <mxGeometry x="634" y="-807" width="586" height="855" as="geometry" />
        </mxCell>
        <mxCell id="08P-bwt3jYYdELrY3Ced-3" value="Public subnet" style="points=[[0,0],[0.25,0],[0.5,0],[0.75,0],[1,0],[1,0.25],[1,0.5],[1,0.75],[1,1],[0.75,1],[0.5,1],[0.25,1],[0,1],[0,0.75],[0,0.5],[0,0.25]];outlineConnect=0;gradientColor=none;html=1;whiteSpace=wrap;fontSize=14;fontStyle=0;container=0;pointerEvents=0;collapsible=0;recursiveResize=0;shape=mxgraph.aws4.group;grIcon=mxgraph.aws4.group_security_group;grStroke=0;strokeColor=#7AA116;fillColor=#F2F6E8;verticalAlign=top;align=left;spacingLeft=30;fontColor=#248814;dashed=0;rounded=0;" parent="KJmp3X2AXbq6B-Z1RPYA-1" vertex="1">
          <mxGeometry x="159" y="225" width="350" height="302" as="geometry" />
        </mxCell>
        <mxCell id="TTbmBz7x6POpJ1Bqss9g-9" value="VPC" style="points=[[0,0],[0.25,0],[0.5,0],[0.75,0],[1,0],[1,0.25],[1,0.5],[1,0.75],[1,1],[0.75,1],[0.5,1],[0.25,1],[0,1],[0,0.75],[0,0.5],[0,0.25]];outlineConnect=0;gradientColor=none;html=1;whiteSpace=wrap;fontSize=14;fontStyle=0;container=1;pointerEvents=0;collapsible=0;recursiveResize=0;shape=mxgraph.aws4.group;grIcon=mxgraph.aws4.group_vpc2;strokeColor=#8C4FFF;fillColor=none;verticalAlign=top;align=left;spacingLeft=30;fontColor=#AAB7B8;dashed=0;" vertex="1" parent="KJmp3X2AXbq6B-Z1RPYA-1">
          <mxGeometry x="47" y="149" width="508" height="639" as="geometry" />
        </mxCell>
        <mxCell id="08P-bwt3jYYdELrY3Ced-12" value="RDS(PostgreSQL)" style="sketch=0;points=[[0,0,0],[0.25,0,0],[0.5,0,0],[0.75,0,0],[1,0,0],[0,1,0],[0.25,1,0],[0.5,1,0],[0.75,1,0],[1,1,0],[0,0.25,0],[0,0.5,0],[0,0.75,0],[1,0.25,0],[1,0.5,0],[1,0.75,0]];outlineConnect=0;fontColor=#232F3E;fillColor=#C925D1;strokeColor=#ffffff;dashed=0;verticalLabelPosition=bottom;verticalAlign=top;align=center;html=1;fontSize=14;fontStyle=0;aspect=fixed;shape=mxgraph.aws4.resourceIcon;resIcon=mxgraph.aws4.rds;container=0;" parent="KJmp3X2AXbq6B-Z1RPYA-1" vertex="1">
          <mxGeometry x="292" y="637" width="78" height="78" as="geometry" />
        </mxCell>
        <mxCell id="TTbmBz7x6POpJ1Bqss9g-47" value="" style="fillColor=none;strokeColor=#ED7100;dashed=1;verticalAlign=top;fontStyle=0;fontColor=light-dark(#ed7100, #8494aa);whiteSpace=wrap;html=1;textShadow=1;fontSize=14;" vertex="1" parent="1">
          <mxGeometry x="818" y="-495.5" width="301" height="208.5" as="geometry" />
        </mxCell>
        <mxCell id="TTbmBz7x6POpJ1Bqss9g-79" value="Security group" style="fillColor=none;strokeColor=#DD3522;verticalAlign=top;fontStyle=0;fontColor=#DD3522;whiteSpace=wrap;html=1;" vertex="1" parent="1">
          <mxGeometry x="803" y="-548" width="336" height="274" as="geometry" />
        </mxCell>
        <mxCell id="TTbmBz7x6POpJ1Bqss9g-71" value="" style="fillColor=none;strokeColor=light-dark(#ed7100, #8494aa);dashed=1;verticalAlign=top;fontStyle=0;fontColor=#5A6C86;whiteSpace=wrap;html=1;" vertex="1" parent="1">
          <mxGeometry x="828" y="-392" width="254" height="98" as="geometry" />
        </mxCell>
        <mxCell id="TTbmBz7x6POpJ1Bqss9g-23" value="" style="fillColor=none;strokeColor=#5A6C86;dashed=1;verticalAlign=top;fontStyle=0;fontColor=#5A6C86;whiteSpace=wrap;html=1;fontSize=14;container=0;" vertex="1" parent="1">
          <mxGeometry x="1238" y="-651" width="234" height="186" as="geometry" />
        </mxCell>
        <mxCell id="TTbmBz7x6POpJ1Bqss9g-33" style="edgeStyle=orthogonalEdgeStyle;rounded=0;orthogonalLoop=1;jettySize=auto;html=1;strokeWidth=2;" edge="1" parent="1" source="TTbmBz7x6POpJ1Bqss9g-50" target="08P-bwt3jYYdELrY3Ced-7">
          <mxGeometry relative="1" as="geometry">
            <Array as="points">
              <mxPoint x="703" y="-915" />
              <mxPoint x="446" y="-915" />
            </Array>
          </mxGeometry>
        </mxCell>
        <mxCell id="TTbmBz7x6POpJ1Bqss9g-51" style="edgeStyle=orthogonalEdgeStyle;rounded=0;orthogonalLoop=1;jettySize=auto;html=1;strokeWidth=2;" edge="1" parent="1" source="HzvHOAcy-J8XZPYvs9qB-1" target="TTbmBz7x6POpJ1Bqss9g-50">
          <mxGeometry relative="1" as="geometry" />
        </mxCell>
        <mxCell id="HzvHOAcy-J8XZPYvs9qB-1" value="一般ユーザ" style="sketch=0;outlineConnect=0;fontColor=#232F3E;gradientColor=none;fillColor=#232F3D;strokeColor=none;dashed=0;verticalLabelPosition=bottom;verticalAlign=top;align=center;html=1;fontSize=14;fontStyle=0;aspect=fixed;pointerEvents=1;shape=mxgraph.aws4.users;" parent="1" vertex="1">
          <mxGeometry x="411" y="-1077" width="78" height="78" as="geometry" />
        </mxCell>
        <mxCell id="TTbmBz7x6POpJ1Bqss9g-2" style="edgeStyle=orthogonalEdgeStyle;rounded=0;orthogonalLoop=1;jettySize=auto;html=1;fontSize=14;strokeWidth=2;" edge="1" parent="1" source="HzvHOAcy-J8XZPYvs9qB-2" target="TTbmBz7x6POpJ1Bqss9g-38">
          <mxGeometry relative="1" as="geometry">
            <mxPoint x="517" y="-1016.5" as="targetPoint" />
          </mxGeometry>
        </mxCell>
        <mxCell id="HzvHOAcy-J8XZPYvs9qB-2" value="アプリ開発者" style="sketch=0;outlineConnect=0;fontColor=#232F3E;gradientColor=none;fillColor=#232F3D;strokeColor=none;dashed=0;verticalLabelPosition=bottom;verticalAlign=top;align=center;html=1;fontSize=14;fontStyle=0;aspect=fixed;pointerEvents=1;shape=mxgraph.aws4.users;" parent="1" vertex="1">
          <mxGeometry x="133" y="-875" width="78" height="78" as="geometry" />
        </mxCell>
        <mxCell id="TTbmBz7x6POpJ1Bqss9g-3" value="AWS Cloud" style="points=[[0,0],[0.25,0],[0.5,0],[0.75,0],[1,0],[1,0.25],[1,0.5],[1,0.75],[1,1],[0.75,1],[0.5,1],[0.25,1],[0,1],[0,0.75],[0,0.5],[0,0.25]];outlineConnect=0;gradientColor=none;html=1;whiteSpace=wrap;fontSize=14;fontStyle=0;container=0;pointerEvents=0;collapsible=0;recursiveResize=0;shape=mxgraph.aws4.group;grIcon=mxgraph.aws4.group_aws_cloud_alt;strokeColor=#232F3E;fillColor=none;verticalAlign=top;align=left;spacingLeft=30;fontColor=#232F3E;dashed=0;strokeWidth=3;" vertex="1" parent="1">
          <mxGeometry x="288" y="-868" width="1224" height="956" as="geometry" />
        </mxCell>
        <mxCell id="08P-bwt3jYYdELrY3Ced-6" value="&lt;font&gt;Route 53&lt;/font&gt;" style="points=[[0,0,0],[0.25,0,0],[0.5,0,0],[0.75,0,0],[1,0,0],[0,1,0],[0.25,1,0],[0.5,1,0],[0.75,1,0],[1,1,0],[0,0.25,0],[0,0.5,0],[0,0.75,0],[1,0.25,0],[1,0.5,0],[1,0.75,0]];outlineConnect=0;fontColor=#232F3E;fillColor=#8C4FFF;strokeColor=#ffffff;dashed=0;verticalLabelPosition=bottom;verticalAlign=top;align=center;html=1;fontSize=14;fontStyle=0;aspect=fixed;shape=mxgraph.aws4.resourceIcon;resIcon=mxgraph.aws4.route_53;rounded=0;" parent="1" vertex="1">
          <mxGeometry x="426" y="-37" width="78" height="78" as="geometry" />
        </mxCell>
        <mxCell id="TTbmBz7x6POpJ1Bqss9g-66" style="edgeStyle=orthogonalEdgeStyle;rounded=0;orthogonalLoop=1;jettySize=auto;html=1;strokeWidth=2;" edge="1" parent="1" source="08P-bwt3jYYdELrY3Ced-7" target="08P-bwt3jYYdELrY3Ced-8">
          <mxGeometry relative="1" as="geometry" />
        </mxCell>
        <mxCell id="08P-bwt3jYYdELrY3Ced-7" value="CloudFront" style="points=[[0,0,0],[0.25,0,0],[0.5,0,0],[0.75,0,0],[1,0,0],[0,1,0],[0.25,1,0],[0.5,1,0],[0.75,1,0],[1,1,0],[0,0.25,0],[0,0.5,0],[0,0.75,0],[1,0.25,0],[1,0.5,0],[1,0.75,0]];outlineConnect=0;fontColor=#232F3E;fillColor=#8C4FFF;strokeColor=#ffffff;dashed=0;verticalLabelPosition=bottom;verticalAlign=top;align=center;html=1;fontSize=14;fontStyle=0;aspect=fixed;shape=mxgraph.aws4.resourceIcon;resIcon=mxgraph.aws4.cloudfront;rounded=0;" parent="1" vertex="1">
          <mxGeometry x="407" y="-841" width="78" height="78" as="geometry" />
        </mxCell>
        <mxCell id="TTbmBz7x6POpJ1Bqss9g-18" value="&lt;font&gt;Certificate Manager&lt;/font&gt;" style="sketch=0;points=[[0,0,0],[0.25,0,0],[0.5,0,0],[0.75,0,0],[1,0,0],[0,1,0],[0.25,1,0],[0.5,1,0],[0.75,1,0],[1,1,0],[0,0.25,0],[0,0.5,0],[0,0.75,0],[1,0.25,0],[1,0.5,0],[1,0.75,0]];outlineConnect=0;fontColor=#232F3E;fillColor=#DD344C;strokeColor=#ffffff;dashed=0;verticalLabelPosition=bottom;verticalAlign=top;align=center;html=1;fontSize=14;fontStyle=0;aspect=fixed;shape=mxgraph.aws4.resourceIcon;resIcon=mxgraph.aws4.certificate_manager_3;" vertex="1" parent="1">
          <mxGeometry x="328" y="-37" width="78" height="78" as="geometry" />
        </mxCell>
        <mxCell id="TTbmBz7x6POpJ1Bqss9g-89" style="edgeStyle=orthogonalEdgeStyle;rounded=0;orthogonalLoop=1;jettySize=auto;html=1;entryX=0;entryY=0.5;entryDx=0;entryDy=0;strokeWidth=2;" edge="1" parent="1" source="TTbmBz7x6POpJ1Bqss9g-25" target="TTbmBz7x6POpJ1Bqss9g-31">
          <mxGeometry relative="1" as="geometry">
            <Array as="points">
              <mxPoint x="1164" y="-359" />
              <mxPoint x="1164" y="-518" />
            </Array>
          </mxGeometry>
        </mxCell>
        <mxCell id="TTbmBz7x6POpJ1Bqss9g-25" value="container" style="sketch=0;outlineConnect=0;fontColor=#232F3E;gradientColor=none;fillColor=#ED7100;strokeColor=none;dashed=0;verticalLabelPosition=bottom;verticalAlign=top;align=center;html=1;fontSize=14;fontStyle=0;aspect=fixed;pointerEvents=1;shape=mxgraph.aws4.container_1;" vertex="1" parent="1">
          <mxGeometry x="941" y="-374.5" width="48" height="31" as="geometry" />
        </mxCell>
        <mxCell id="TTbmBz7x6POpJ1Bqss9g-31" value="CloudWatch Logs" style="html=1;whiteSpace=wrap;fontSize=14;" vertex="1" parent="1">
          <mxGeometry x="1260" y="-533" width="150" height="30" as="geometry" />
        </mxCell>
        <mxCell id="TTbmBz7x6POpJ1Bqss9g-32" value="Elastic Container Registry" style="sketch=0;points=[[0,0,0],[0.25,0,0],[0.5,0,0],[0.75,0,0],[1,0,0],[0,1,0],[0.25,1,0],[0.5,1,0],[0.75,1,0],[1,1,0],[0,0.25,0],[0,0.5,0],[0,0.75,0],[1,0.25,0],[1,0.5,0],[1,0.75,0]];outlineConnect=0;fontColor=#232F3E;fillColor=#ED7100;strokeColor=#ffffff;dashed=0;verticalLabelPosition=bottom;verticalAlign=top;align=center;html=1;fontSize=14;fontStyle=0;aspect=fixed;shape=mxgraph.aws4.resourceIcon;resIcon=mxgraph.aws4.ecr;" vertex="1" parent="1">
          <mxGeometry x="408" y="-532" width="78" height="78" as="geometry" />
        </mxCell>
        <mxCell id="TTbmBz7x6POpJ1Bqss9g-36" value="GitHub Actions" style="shape=image;verticalLabelPosition=bottom;labelBackgroundColor=default;verticalAlign=top;aspect=fixed;imageAspect=0;image=data:image/png,iVBORw0KGgoAAAANSUhEUgAAAgAAAAIACAYAAAD0eNT6AAAAAXNSR0IArs4c6QAAIABJREFUeAHsvQ2oJdWVL35pzEMywX8j+XC676na6RERJwRJMsEnkjFBMpIwSSY4wckTEckTkSD9Mkn31RE5MvbZVacTG5vBRxNxDA4JjgiKmHuvYzASTCOOSMP4QpOEsTGOdBpxGgmNhOb371X31O2659Y5pz723rWr6tfQnLr1sfZav7Vqr1X7Y62lJf5zioAa4kI1xpVhjK+rEfapCHE4wkMqwo8GEZ5UEdZVhBeVxrEwxm9UjLcDjfdUDCiNM0GMUyrGG0GE1wcaR8MYz5+j91QQ4TEV40gY4QfBGPcGY9wcRrj6YwfxUacCsjEiQASIABEgAn1HIBzjU6HGrUGEwxOnfjJx5OLMHf6XACKI8YoEGSrGXqVx7cVDXNR3/VB+IkAEiAARIAK1ENg1xAeDCNcEI9ypNB5VMV5z6eCrthVo/FZGHQYR7lYa13O0oJYZ8GEiQASIABHoOgIyjD+I8FUZug80Xq/qgH18LojxlgQFMnKx6/v4cNd1SfmIABEgAkSACMxFYBBj1yDGHYHGsz46bls8BRovhRHuCUa4Yi5AvEgEiAARIAJEoCsIXHoYF03m8J8PNM7acrKtoatxTBYuSjDUFR1TDiJABIgAESACmwioGF+TlfWtccwOFxRuYhLhxUDjNpkO2QSOB0SACBABIkAE2oaAzHerCCtK48Smk2vCsbaszWCEd5Kthxp72qZz8ksEiAARIAI9RkD2yk/20DvdmtfFIOPcTojnJb9Bj82JohMBIkAEiIDPCMiw9WRu/9UuOmIPZHojSXJ0CDt9tgPyRgSIABEgAj1BQA2xM9S4X4atPXCSfRlxOHIuN4LqiYlRTCJABIgAEfAJgST9rqTdjfEuHb/bLIQJ3hrvyzoBCcB8sgvyQgSIABEgAl1FYIgdSuOWIMabdPwNOP7pBY0RTgca+7lzoKsvHOUiAkSACHiAwCDC57qWpa8zQYzGiSDCTUtD7PDAVMgCESACRIAIdAGB3SNcFsZY7YyznP6K7tbfry3H+GwX7I4yEAEiQASIQEMIJFn7pKxutxxkLxYKBjGe2B1juSHTYbNEgAgQASLQVgRUhBuVRiOldhlwmFlbICWLVYw7OS3Q1reQfBMBIkAEHCIgOelVhHU6YTNO2AccgxivDA7gEw7NiE0RASJABIhAmxBQGrcHGn/wwWmRB/MBSDDGvW2yR/JKBIgAESAClhGQuX6l8TSdrnmn6xumYYRfcG2A5ReK5IkAESACbUDgXK75a1SMt31zVOTHYjAS4fQgwlfbYJ/kkQgQASJABCwgoEa4r6uONozxmzDG82GEJwYRHk6q641xr4qxNxjj5qQ8sca1YYQvhxG+OYhxR1K5MEKsYhxRIzwuWx/DEV5RGmc6itMRC2ZFkkSACBABIuArAruG+GAX9vWHGqcCjZfCGI8k2fBifE2NcPnSEBeYxl6GzYODuC4JFDQeTPCT5DsaZ1seHByVss2m8SI9IkAEiAAR8AyBQGOPinC8jU4r0Pht4uzlC96TYjgfGeJD4QhfUjJyEOHlQOOPbcM20Hg7HONTnpkq2SECRIAIEAFTCAw0vqg0TrfFQckwvgzHS4pbNcYlpnCwSUdGV5TG9cEIeqBxtC1YC59JKmGb4JA2ESACRIAIuEcgmftuwdep1BqQ7WrLGpe6R8l8i0k2RY1bzy22fL4VowNjaCYOMm8HpEgEiAARcI/AEDtk2NzzL9E35ItZjXGle4Dctfixg/hoqPFtWbfg89qBQONZVhd0ZxdsiQgQASJgHIFkf3+EF310/sEI7wQRDocRrjYueAsI7ooQyMLFIMLrPupHxXitLdMuLVA3WSQCRIAIuENg+QFcrDSO+eZcQo3fDSJ8R+bK3aHhd0uyiFAS9PimK6VxgkmD/LYdckcEiAAR2IKAfLl5t9I/wvFQ49ZPH8EHtjDLPzYRUDGuCjWe8Wl6IIjxVlfWY2wCzQMiQASIQBcRkO1x8uXmy9ekFKIJYtzAhWXFrS0Y4YogwmO+LBqUfAvLB/DJ4hLwTiJABIgAEXCKwO4RLvOmhK+UEo5wo1MAOtaYJDVSvqzh0DjNXAEdMzCKQwSIQDcQSDLV6eZz+stXq6TdlQQ53UC2eSkkVbEP9RpkJGDPCJc1jwg5IAJEgAgQgQQBSeUqWfKaHvaX7W1JKl7qxTgCFw+Tio0PNj0tIGsCuDDQuHpJkAgQASJQHgFxDJI8p1Hnr3GSWeTK667KEzIXLymHm9R3Emy2JDNjFYz5DBEgAkTAewQkWYsssmvSGYQjPCT5BrwHq2MMyo4KyaXQlO4l6KTeO2ZUFIcIEIGWILCR4W+1MQcQ45RUx2sJWp1kM9nuGTdXb0ByF3BbZydNi0IRASLgMwKyTawp5y8dv6S19Rmf3vAmgaDG/Y3lDtB4ujdYU1AiQASIQNMISLGcppy/tN20/Gx/OwIyGtPUFlDZ9bGdI54hAkSACBABowgkJX1jwHkAoHGyr3n7jSrQIrGk2FBzKYW/ZlE0kiYCRIAI9BuBQYxdKsa7zp1/hHWpLdBv9FsivUwJRLjH+XZBjdNS4KglKJFNIkAEiECLEJCOfeR+xb+s8m8RSmR1goDSuF5pnHEcLL7GRYE0QSJABIiAYQTUGNplZ54sKhthn2ExSM4hApK61/lWQY0HHYrIpogAESAC3UZAaVzrdJW3xvtJAZ9uw9oL6QKNPc6LQ2lc3wtwKSQRIAJEwCYCycIujVOuvv4DjT8MInzOpkyk7RaBJFV05DRb5LuyXsWtlGyNCBABItAlBDYWdP3ClfOXbWQs+9olAzovixRnclpZMMLLLAF9Hn8eEQEiQARKIaBGuM+V85e54uAB7CnFIG9uHQKhxjMObUq3DiAyTASIABFoGoFkAZfGWSedtcZpfvk3rXE37Uv9CJfFhMSO3UjGVogAESACHUHAWYU/jfdVjKs6AhvFKICAFPFREY47Ci6PcSqggFJ4CxEgAkRAEAhGuNNF5yw7C8IIXybq/UNACgkFMd5yYWeDCN/pH8KUmAgQASJQEgFZ9R9ovOeiYw7GuLkke7y9QwjsHuEyF5klZWcJi0d1yHAoChEgAnYQUCM87sL5ywJDOxKYo7oc47Mqxt5kMeTGgsi9MmIRjHCFuVb6TUmmf1zYWxDjiX4jTemJABEgAnMQSCq6OSj0M4jw5Bw2GruUOPwR9qkI60VGQZIh7AjrKsKNjTHdgYbDCN90EgQcxHUdgIsiEAEiQAQMIzDEBYHGbx10xG/InnDD3FcnN8QOpXFL7Wx1GifUCPtkgVt1Zvr7ZBjjEdu2J/a9NMQF/UWZkhMBIkAEchCQCm62O2ChL1/ZOc03ckqG85XGr0zKLfPNQYTDaoidjQjV0kaT7YGGdZGn10GEu1sKEdkmAkSACJhHYHeMZUeV2/aa5748xYuHuMj2WodQ45QMbZfnrr9PyNoKCaDyHLexcxpnxN77izIlJwJEgAhkEBhEeNhYBztjDYFkgMs02dihJBxyNNWBBNMI66xTX1zdocattm1R7L04R7yTCBABItBRBJSGst3hBjHeVIeaHxIPY3zd0UjHhvNPgyGNMyrCSkdNyLhYYYwf27ZJBmXG1UaCRIAItA2BcwHAozY7W0n2M4jxmaZx+XiMrwQaf7Qp60LaGseYmnaxJSTrAWK8sRDPNMCq9ntkMSe8gwgQASLQUQRcfP2HMe5vGj51AFdadiZbv/gXOSSNB3cN8cGmcfG5fRc64yiAzxZA3ogAEbCKgPW5f40TVgUoQFy25Tmd81/k/CfXQ43fhSN8qYAIvb0lHOEhm4Gb0O8tuBScCBCB/iIwSflre0j8a00j7LL8bBVnJRnqmKY230qSokEx3q2Ca6FnZG0Gt2vmg8+zRIAIdBeBUOP+Qp1kwS/aaVphjNWm0ZNaA9N8efl3hNODGHc0jZeP7dveFSD5L3yUmzwRASJABKwgIIusghHeseYMpcSvhrLCfFGiGxn+TliTsWJgtICfo2qEy4uK2Jf7whFeWYBbuTUYWd1pnPz0EXygL1hSTiJABHqOgHxtWutQpXP1oNBPMMINVmXMOhHTxx7g59MrIjsnbOpSRhl8kpe8EAEiQASsIRDG+I21DlVy4g9xoTXmCxIOIjxvTUbTDj+PXoTjgwifKyhu529TMY7Y0mcQ4fXOA0gBiQARIAK2K/7JvHvTKCepjfOcagvPyU4NFhhaWpKFkrYCgAndq5q2W7ZPBIgAEbCKQBjhCWsdqWz7G2KHVQEKEFcat1uTsYkgQuMkSw4vLSVFlmzhr/FoAdPiLUSACBCBdiJg/StK43YfkLFd6Kep4EJ2VvS5kI3VkR3ZEuhBumof3h/yQASIQAcRkFKotpxXEOOUL6upA43XbcnZNN1A4z0VY68PIy1NvCJhjEcs6uDOJmRim0SACBAB6wjYzIg3iPAd6wIUbMCig6i+3czw0HWyNW6MKwtC0pnb9oxwmS39BjFe6QxQFIQIEAEikCKgxlbz4b/rw8r/TVkNO1tbDqcuXSluNIhw0CfsUx3Y/LU5xdPnKRabOiNtIkAEGkTAZuY/mVpoULRtTdd1rLnPa5zOPe9DsKFxQnZ3bAOioycGB/AJa7oYYV9HYaNYRIAI9BUBJfvzLTgrmZP2bZuaDTnDCN9M1lDIYjELOJqgGcb48a7v48N9sHGl8bQJzKZpyNRKH/CjjESACPQEAZuZ1AKNH/oG43SnbuJvySwockqK43CMF0zQtEFDUjz3IbPdQOOLNvATmpwG8O2NJj9EgAhURsDy8L932epsOIYgwjeyCggi3CQ7H2y0ZYRmhBcbr8eQBcz08Uath5NGsNo+orPXNLukRwSIABFoBIEgwqs2OsogxpuNCLSgUSuyTgUAwoKUkj3nZB+10Z4RmhpnpNqdL9szF6it9OUgwiEjOE0FAJJGujQzfIAIEAEi4BsCyw/gYhudZEJzDO2bvMKPDXmnRwCycp9zGNeoCMdttGuCpuRFWI7x2SzPXTgexPiMCXymacjuil1DfLALGFEGIkAEeoyA1Xrqnpaune7QTfw9LwAQ85KvbKmCqKQU8tQXpQ9/BxpnwxEe8m3BZt1XM9D4tQ18BxG+Wpc3Pk8EiAARaBSBQYQnbXSQSuNYo4LNadyGvIsCgJSdZY1Llcy/exgECE9BjLfCGF9P+W37bzDGvZawPtJ2bMg/ESACPUdAWdq/Ho7wXV+hteEQigYAKSYy8iIr8m3wYoJmqPGMGuOSlN+2/gYPYI8JPLbRiHC8rZiQbyJABIjAUjDCFds6NgNfpjKcLIWFfIXYisw5iwAXyS978mVvvg1+jNDUOB1qfLvtdQVUjKNG8Jh6N2T9zCId8zoRIAJEwEsEAo3bbHSMvudMtyJzhQAgNQqlca2tREwmZBV9Sna9lN+2/doqcvXxGF9pGxbklwgQASKQIGBri5rkn/cZYhNOcZpG2SmAaXwkX78aQ8sK82naXvyt8X4wgm5jXYEwwtVWMPR0l8u0bfFvIkAEiMA2BGxtTQsjfHlbYx6dsOEM6gYAKTzypS1f3DZ4NEEzqRipcW3Kbyt+N5ICmU/RHOHFVshPJokAESACWQRs7v+/eIiLsm35dmzCEU7TSFMBm5J1EOMOqaMw3Y43f0uCoyF2mpLXNh0VYd00doHGH2zzTfpEgAgQAeMIhDE+b7pDFHqSVdA4s4YJWpJ7SypgEyzLKvwgxhM2+DVBU1IdS8pjE7LapiEZD03IPE1jzwiX2ead9IkAESACRhFQMfZOd2Ym/g4j/MAooxaImZBzmoapKYA8ccMRviRplafb9OVvKX60K0KQx7sv55JsjFOr+E3g16WcCb7oinwQASJgGYEwxiMmOsBpGm3IkDbNs4m/bQYAYgqSelaCK18XCcpwuBphn7dbBm2tAxjhPsuvKskTASJABMwiIHXNTTi+LA3Z/9+GHOlZnk0d2w4AUu0vH8AnVYzXTPFtnE6ElwcxdqX8+vQrRXyMyzvGUz7JSF6IABEgAgsRUBrGV0XLCvGFDXtwg3EnIGsfRrjBpWgyhZN8dVsY1q6Lj2Q4lDUmLvEo0paKENeVbdvzzAhYBHreQwSIgC8I7I6xvK0jM+FIIqz7IuM8PmzI7moEICuXfGknKXtN6M4wDZmqCCN8M8tv08c2El+JnE3LxfaJABEgAoURsLUgKohwuDATDd7YlQAghVCCDxXjbRty1aWZpBJOGW34dxDhc3XlyXve9wWQDcPO5okAEfAJgWCMm/M6srrnghHu9EnOWbzUlTPv+SZGALLySRlfCcBkHUYef02dE36WY3w2y2tTxzJiYgMHCSyakontEgEiQARKIZDUpTc85Csd60Dji6UYaehmG07A9RqAWdCJsw00XrchY1WasoVRApRZPLs8byO5kgTULmVgW0SACBCBygioCD+q2pnPey7Q2FOZKYcPzpOh6jVfAoAUxkBjv42FnpXx8WR6yMYOimCMe1Pc+UsEiAAR8BoBS2lRW7MYqqoTm/dc01MAeQYnc9M2dD0Ph1nXkqmAA/hkHp8uz9nIrBiO8JBLGdgWESACRKAyApKud1ZHXfm8xq8qM+T4wcoyzpk28TEASGFVEW5UGidtyF2GpuxYSHlq6jepaDhHj2Xk2bx3hMebkoftEgEiQARKIWCj9rykgy3FRIM3b3bcBh2BzwGAQC1z8CrGkSYXCUrbsgW1QdUvqRh3mtZ/GOP5JmVi20SACBCBwgjYWAilNJ4uzEDDN5p2AELP9wAghTzZAqrxKxsYFKEZatyf8tLEr6UdMK81IQvbJAJEgAiURqBIR132niDCY6UZaeiBsrIVub8tAYBA/ukj+EBSHc9CNshFWMkOhYbUnjQrxXsW8Vj6usaJJmVi20SACBCBwgiU7uAKDJW3aSGUDfl92wVQxBiklK1M3djAYx7NJneLBAdx3TzeqlyTEbUiePMeIkAEiEDjCFTp5BY9M4hwsHHBCjKwSJYq19s0AjANkwyLhxqnqshd6RmNW6Z5cPW3inFVJZ4XBcFDXOhKBrZDBIgAEaiMgI0OUIaUKzPk+EEb8rc5ABD4d30fH7aVH2Iabylr7Fjlm81Nqilimqfaf49xyWYjPCACRIAI+IpA7c4u/2tor6/yTvNlQ/62BwApRlLFT6o62sAopRloPJu25/o3yY2Qb7+1goJghCtcy8L2iAARIAKlEUg7YpO/ocatpRlp6AGTcqe0uhIAiErUEBeGMe5XGu+n8pn8HWgcbUj1S8sP4GKTsqS0WA+gKY2yXSJABEohkHZaRn8j3FiKiQZvNir35GuyjYsAF6lAjXB5oPGSabya3glgWh6hN4jw1UV48joRIAJEoHEEpIa56U6wTQVRTMsu9Lo0ApAa6O4RLutaACCjGzb0L9sLU9z4SwSIABHwFgEbRWIGMe7wVuApxmw4gC4FAImTHEPbmgKQoGJKJc7+/NhBfNSG/sMRvuRMCDZEBIgAEaiKgNI4bbwTHGFfVX5cP2dcdhkBGOEG13LYaE9pXG8jVfQWzBvMGqk01BZeDC0IlPwCNvRBmkSACBABowgEI7xjvBMc4T6jTFokZlz2DkwBqDEuCSM8YQObaZpd3AYoKZYtmixJEwEiQATMIBDEeGu6U677d5OdellU6sqa93ybpwBUjL1W6kPM+LoOItxUVmem7g8jXJ2nv7rnlmN81hSPpEMEiAARsIaArMKu2+HlPH/EGsOGCefwXmsPuNBr4xSAOC2lccwGHnNpaijDKi1MbqDxxbm8zQhaFj3DPACFVcAbiQARaBIBGyu7wxg/blKmMm0v6syrXG/TCMDFQ1wURDjcRGngprcABjFuqKLfhc8wE2CZV5D3EgEi0BQCocYzCzu0sl9CDS7sKoujcdlbNAIgIxUqxts2MChCUxIMldWXyfstlQOGSR5JiwgQASJgDQEp3Vuksy5zTxDjFWsMGyZcRq6i9/o+AiApcM8tVHu+qDw27pMRh0GMXYbVWYqcirBiQbZ3SzHBm4kAESACTSEQRDhkuhNsU0lU07ILPZ/XAARj3GtD5tI0x3iqKZtP2w1jPFKa70WjYRGOp/T5SwSIABHwGoFwhO8a7wRjQJKseC34hDkbsvsYAEh+ehXhuA15q9AMx/hU0/YRRvhFFd7nPSM0m5aL7RMBIkAECiGgItw4r0Oreq0te6GryjfvOZ+mAJKCNxF+NI/fBq55sUskiHHKtOwypVboxeNNRIAIEIGmERBHbboTFHptqQhoQ3ZfAoBA4zYVWcj0uGgYfM71UON36hB2Nm33woMN3asWJcFqWgdsnwgQgYYRsJYOdQTdsGiFmrfhBJoOAKRyn4rwsg3Z6tCUhX+SfKeQYizflOQ9mBOoVJZT4xbLrJM8ESACRMAcApU7uzkd6CDCk+Y4tEfJhuxNrQGQwj3BCNqGTEZoelQjIozwTSMyTb0DstbCnrWSMhEgAkTAMAI2sgE2neSlKEQ2nEATAYBUoLNeuGfK2ZXEbm9Rnbi4T4bqS/JfKEPk7hjLLvhnG0SACBABIwhYK/wyxIVGGLRIxIYTcBkAyF56GW2xIYcRmhpnBhG+alGFlUhbwUzjdCVm+BARIAJEoCkEQo37jXT2U1+IYYzPNyVT0XZtyO1kDcAQO1wX7imNlcYJX/Pi26iCKWm1i9od7yMCRIAIeIGAra2AbVgRXdqpTQU5ec/bHgForHBPAdlTPAYRHvZhtX/eCzY4gE+kfJr8DUd4KK89niMCRIAIeIuAfKWZ7Ag3aUV40VuhJ4xt8lrCuS16xtYIgBTuESfTROGeRTKn18MYv1ExrvJZ76HGt1N+Tf4OYtzhs9zkjQgQASKwHYEhdgQafzDZGQqtQOOPS0Ps2N6gP2dMy5zIHeEbpiWcjNI0VrhnIU4aZ8II93z6CD5gWnbT9GyteWlL8ivTeJIeESACLUdAxTi6sJOv8JXs+7YoGzKbHAGQwj0qwos2+DRFUwoLCZ9teQUszf+flW2YbcGAfBIBIkAENhGQoWVTDiFLR4rPbDbi4UGWV1PHJgIA+ZJOCvdonDHFl2k6gcbbMjLhoVpnsmRr/l/FeG1mo7xABIgAEfAZAVu10eXr0Ge5TTtFoVd3EaDsnvCpcE8eRhIwypoEn3Wbx5ut+f8gwuG89niOCBABIuA9ArZSAiuN931dDS5KyXNudc9VHQGQwj1STKZu+1af1zimDuBK7w16BoMqwroNfCSz4IwmeZoIEAEi4D8CQYy3bHSOUpTGV+mtyFt2EeDGIszbbMxNG5NPJ0WF9vq+qHOenUmJalmYagyT7JoYDTWvbV4jAkSACHiNgLJUNjYc4wVfBbfhDMpMAcgWTEkgY4MPgzR/osa4xFcdFuVLxbjTICabqYGDGG8W5YH3EQEiQAS8REBp3GKjgxSakrLWR6FtyFskANg1xAcHEQ7aaN8YTY0TSuN6H/VWhSdbO11UjCNV+OEzRIAIEAFvEJCvPGPOIzs8KgFAhO94I2iGERvyLloDMND4oq3pFiPyyLqNMXSXtrVJAGoEmym7ntD8WsakeEgEiAARaCcCQYxXbHSUQYRXfUTEkqy5iYASJzTGUzbaNEVTpiN2j3CZj7qqw5MkKTKFUZZOsqaA+//rqIbPEgEi4AsCtjpK6TSDB7DHFzlTPrKduanjbSMAQ+yQEZBA4z1TbZimE2qcCjVuTXHp2m+g8VvTmAk937e5dk2PlIcIEAGLCCwfwCdtdJQJzRHus8h6JdI2ZM2uAZC8+IHG6zbaMUVTCvfIFsRKALbgIZs2HYxwZwsgIItEgAgQgWII2PpaUhoninHg7i5TTjRLRwKAtHBP9rx3xxGO+56q2YQlSJIeW9j7urjVBG6kQQSIQA8RCEbQtjpMyTjoE6RW5JTtlBonrdDOX4S2uSWtcJsRVnzSgy1edn0fH7ZR6EpwDiP8whbfpEsEiAARaASBpN68KUczTSfC8UaEmtGoLedQ2BFP42P577YV7pmhtsKnwxj3W9TF3sKM8EYiQASIQFsQkOF6ix2nN9umvP9SNxQQyLbD7NqEtthhHT4l14KthZeBxlnJLFiHPz5LBIgAEfASAavTADFe8UVo2Z5oMdApPzRvyOFnZQoiHGpj4Z66NhKO8N0sDiaPfc5uWRc3Pk8EiEDPEdgzwmUmO8xttDSu9QHiMMaPt/FmwQk30obGMVkB7wPOrnlIyinHOGUN95aVQXaNP9sjAkSg5QjIIidbHWgYY9UHeGR/vi0Zm6I7Gfbu9fY0KUBlC3/JmeCD7ZIHIkAEiIA1BGzWBpDOWQrhWGO+IGHhwZajaITuCI93oXBPQfXl3zbEDptrWKSGQ37DPEsEiAAR6AgCkgve1iIqcY5hjOd9gEpFON6IszY41SC5G4KDuM4HPJvmYRDjDpv6XNa4tGkZ2T4RIAJEwDoCtivW+bAyPdDYb9NhWKWt8X6ocX+XCvfUMWrJaKhivGsLc1+mrupgxGeJABEgAoUQsFxFDaHG72S7ViFmLN1kM1mMLUeU0I3wohrhckuwtJKs0njUJuYcZWmlWZBpIkAEqiIQRHjMZqfqw5zqIMLdNmU0STuQ1e0at1TVZ1efk7oLJnHeRsuzJFZd1SPlIgJEwCMEbBZT2exkPfiSbcNaAAnGuly4p47ZK41jm/ZkcH3FJk0GXXXUw2eJABFoKwLKdh37CC82jU0Y4erNzt6GA6lBUyoKCn9NY+Rr+yrGXqu60zjpq+zkiwgQASJgFYFzAcCVVjvYjdrqN1kVogBxNcJ9tuUsQz+pVSCFe4a4oAD7vbxFUvIqjdNlcC17L8v+9tK0KDQRIAIpAg5GAU7vjrGcttfUr4qwXtZB2LhfVpz7gEdTeijabqDxrA38U5pBjDeL8sL7iAARIAKdRMDFKIDyYCpAttQJH6kDcP0baLztw/bINhixi0yOocatbcCCPBIBIkAErCKgYvzEtkOUfe2tLTrtAAAgAElEQVRWhShAXHLJK8mqV2PevuyzgcYfpXDPR4b4UAEWe3/LIMZnBLOyOJe5XxIsLQ2xo/dgEwAiQASIwLl91qpMB1r1Xl/2WyuN26vKUOa5IMYrMsJCCyuGgDqEnTbT/aa6C2N8vRhHvIsIEAEi0AMElMaDaQdp61cKrviS0162QYYjvGJDVkm1LKlre2A2RkW0vh5FFqVqvGSUaRIjAkSACLQdAcmcZ3vVtThbX2oFpPoKItw00DhqIhAQxx+MoLmnP0W3+K+KcacJHSyiIVMMxbninUSACBCBniDgYvGVdNCSoc83SGVEQObqVVRp69lr4sAuPYyLfJOrDfyoA/a3o4rdScKlNuBBHokAESACjSDgKnPeIMJXGxGwQKOSflaKCQUaP0y2D0Y4nuzdl33pEY6HY7wgUyZSn96H8scFRPL2lqQuhcaJRV/uda+L/qQtb4EgY0SACBCBphGQhXp1O9tCz0vFO2bBa1rdjbYvIyauAk7JKtiosGycCBABItAGBEKNZwo58brb6WS43YN6AW3QSdd4lLwMsiDPkZ293DX8KA8RIAJEwAoCMlQqC9pcdM5BjLd82RlgBUwS3Y7AEDuUxtNO7EtyCjDI3K4DniECRIAIzEJA5rdddNBJGxGOcwHdLE107/wgwsPObGuE+7qHICUiAkSACFhGIIzwC2cddYSXZVjYskgk3zACTgszaRxjxr+GFc7miQARaCcCuyIErqYCJNBIAo5D2NlOtMj1IgQkHbSzgFLWp3Dof5FKeJ0IEAEiMBsB2a7ntNPW+BXXBMzWRyuvDLHD6bD/xuJUrvpvpbGQaSJABLxCwEWa4C1BhsaJ4AHs8QoEMlMJASnAJCWQt+i37u6RRc97UH2yElh8iAgQASLgIwK28ubPcgzBCO8sx/isj1iQp2IITPb5Oy3BLHazO8ZyMQ55FxEgAkSACCxEQDpV6VxnOWwb5yV7my8VBBcCxBu2IPCxg/hoEOF1G3Yxi2agcTaIcM0WRvgHESACRIAI1EdAOlfpZGd1wDbOJ7XhI9xYn3tScIVAoLEniPGmDXuYS3OEfa5kZDtEgAgQgd4h4KpgULajl6BjEOHg0hAX9A7wlgkcjvCligWVkNV52WPJXtkyqMguESACRKB9CKgYPynbQZu4X1LHsqCLv/aSVFNctEDPxnWNY7uG+KC/yJAzIkAEiEBHEEhWdo/wigmnXpZGsg5B4/qOQNkJMWR9iOtFoqndSCppWW/QCSApBBEgAkSgDQjs+j4+HGi8nXbELn+TxV4jaGZ5a95SkuqRUtTJxpf9Yprv7h7hsuZRIAdEgAgQgZ4hsHwAn5SV+g11/pApAclW2DPYvRFX1mU0pXulcUbFuMobMMgIESACRKBvCMgXYLJSf/HXWq1FXrMcjQQggwh3y7RE37BvSt5Q4wuBxm9n6cT2ebG3MMKXm5Kf7RIBIkAEiMAEgTDG111vD5x2MmGM3ww0vkil2ENA5vpdlfGd1m/6d2Jn3BZqT8mkTASIABEoi0Awxs1pJ93o7xhPMRNcWe3Nv1+qNAZj3NvkdE9qU1Kmej63vEoEiAARIALOERjEuCPtqJv+FYflHIAONqg0rm9yuD9rRzLV00GIKRIRIAJEoBsIeBUExHhLjbDv4iEu6ga6jqQYYsdkWuelrANu+JjV/Rypn80QASJABCoj0ES2wLnOSeO0rFhnEqH5Kk2G+jVuUxGOz8XT4YLPZM5f4/b5nPMqESACRIAIeIOAfHn74kS28BHhR8EIV3gDlAeMqCF2JnP8jos9bdHLjKBC1pZ4ABFZIAJEgAgQgTIIKI1binTyTdwjNeplmLuMPF27dxDjM0GEw5M99Va2adbRbd/10zV7ozxEgAj0DAFZROargxHnNClxfGQQ4XN9yCwoiZPCCPcojV/Vcc42n53kdvhcz14ViksEiAAR6B4CkrEtiHHKptMwQVtSGwcjaDXC5V3SwvIDuDjU+LaKcdQETjZpJAHZAVzZJfwpCxEgAkSg1wjIArwgbqaAUCWHFeF4OMJDH4/xlTZWmpOgS41wXxjhF5XknzEnb5OWbDcMHsCeXr8oFJ4IEAEi0EUEJF1vEOExm07ECm2N98MxXlARVtT43NfpEDt8048a45JQ41Y1wuOTaQ3v5vTn6SbUeIbbNX2zKvJDBIgAETCMgNK4fZ4z8P2aONhJIHOnpB92XZBIHGUY4WpZZJkU5NE45jtm8/gLRrjTsImRHBEgAkSACPiKQDjGp5TGiXmOoW3Xggivyhd4GOP+IMJNsrBwOcZnpWrinhEuk0BBvtTVIeyUPfepbi49jIukpr2kMJb7BgfwickK/Wuk6E2gsT+M8YgM54fa/7UUJfT2hthBigN/iQARIAJEoCcIyP5z2Y5XwmG0alibcmGmvsIYP+77kH9STjvGDcnUksajMs0k62SCCK8n6yE03lYRTqd2JLsjktGnGG8myZo0jg00jiZbWiP8QBZ6yoiU0lA96UIoZosRKG3/I7wjRd+StWQR1uVjS8U4osbQKsad8rHUtQXcLVZvcdYnK9RnOou0A+TvbIfaFmwCjff6ltxHRnjEMUuyJSUdl6ORr0Djdekkk/Tc3FlRvEPinUYRaML+gxhvSkA9iPBwOMJ3ZSTWqFAkZhaBZY1L5WumLY6MfFYIRiK83Iev02TbZYRvyi4S5dH6DAm+kgBkhPuCg7jO7BtMakRgAwFf7V/y0chomRQVCyJcQ315iIC3KYQb2BbXmSBD44yK0eliPrJVVNZ9tGlKS9aTJJkgY1zlYVdAllqEQBvtP+lfI6zLe9siqLvP6m5ZCMfRgE5MicgwnOtdEs7ekCEukHlHWc+QfF23OEiUuVXJGyEjcc7wY0PtRqBD9q80TkoSuM72VW20NO+qCra4g3c9mpDkItC4pY12t4hn2a0RatwvnYZrXF20l+w2ifDNRTjwej8R6Lz9x3heRbixn9r1TOpk69zGas9OfBG76MCbbEPK98rCG9nq6Jkp1WNniB2TuhZPBxp/bBJjZ21Pvoqkw68HHp9uPQI9tP9Q43eygPAjQ3yo9fpruwCyp96nBVXOOuE2jTpI+uQIV7fd1qb5l/ULsi2v1zof4ymupJ62jH783Xv71zid1IgZ45J+aNxjKSclht/odWfsX1Dwtmzl9NhsKrEWjHBDMjfuH96NjYbJegeOCFQyp9Y9RPvfvtNJRje5TqZpUx7iAgkE2DlvN1CngZHsZ9e4XWo8NG0SJtuXBCVchDrHtmQ7lcb9bSySZdJOukqL9j/H9qWEvMbZJAFR16Y522jQklQm0Pi1U8fX8y9CGQ4/Nz/2rTbayzyekzTNEX5EW5rfAW7iI2sENG6bhymvtQcB2n9Bu5/0/0mJ+44udG6P1QqnskAlwo2SQnWzc+q5k7aBg2SWS/bMelgNsZbBDrFDHFk27a4N/DpM8yiHRWtZYLMP0/5rTakFGi8xBXGzJrzZehjj6+eyPD3f4c62lrFWwSUc4RUV42ubIHfoQHJOyLa3Krjwma1fTGGEezpkGr0Qhfa/1YbrvNNJZdZMkbdeGJCvQkpVPaXxIL/qKhq4ZO/TeFSNcaWvOq7Dl6xbEIcl6UHrvPR8dqt9ySgRKzzWsUw3z9L+t9qtsfc4wnEJqtxoka0sRCBJUSnDuzFeM6bkDk8vTKZR9nZuH3/GUpLcEh7l6O+kXY5wXwZyHnqEAO3fkvPP+AWujfHI4FNWVIyrggiPKX2+xGonO9+MIRaSL8KLknUxeAB7Uqy6+is2IDnwC+FSFkfev3V6aoynuFPArzeJ9m/f+W/2LSM83veS535Zf4YbqQaVJHfo48iABEAjPC4L+qRUZwaWTh9OckhsdVJ02lbxCCK8Ooixq9OG1RLhaP8Onf+kX0l2TI3xqZaYSD/Z/NhBfFS2EyZOcYR3NiO4DjmHyQr+Q6HGF/qo5TDCD7qo11bIpHGSWQSbfeto/+6df/bdlKJhzVoAWy+MgHRWk0JEP2ltCliNY/LSy64Iqc9dWPiO3aiGuLBNJXqznUbXjoMYN3TMvLwXh/bfrOPf8g6zwJD370sug2qInV5vLZQFbRqPBiPcKVMbLF6xoUaZf0v26HZoJGdLh9JGuZg4JbePsXGS9u+R85+8q11MoGbDdr2jKdMDjXW+UnZWvuhjrAYRDoujl8p03G4y20xk1EPmnxvTWRudsyueNW6frTleMYEA7d8/55/pi/aa0DFpOETAWgCw8fV+rdLY+v8ArpTUnA5F7ExTyZoO3a6skFLXQgI8mbYZRLhbxUmQd4sUZJmUIb724zG+kmS81Lgt2bUxxr1hjEeSREYSJLpy4CbaGWFfZwzOM0Fo/147/2TRbRjjfs/MhuzMQ8BWABBovDevXV4rh4Dscfa9NsRkQeZhWZ8hCavKSTj7bpn6SdavxLgjiPGE8jwokIJCs6XhlSoI0P7x2UFb7J+ZM6uYeDPP2AoA5KuNK6TN6FTWanhZIXIj78QRWQQnPJqRthiVYIQrkg7R0/TYgcb+YpLwrkUI0P63I+S7/Us11e1c84x3CNgMAGQ41zuBW8aQpDZVMY56MwwuJXMjPCFf+b6US06qvcXY69PaCCmtKhi1zNy8Y5f2v1glvto/d8cs1l3jd9gMAM7l23+qcQFbzkAy5G1ibromjSDGm/LF7XuCJaleltQ0rymvkYBrox7DVS03wUbZp/2Xg98r+4+B4CCuKycB73aKgM0AIND4g+zXdSpQhxpTEWIjjqiGM5R5fcm0tjTEBW2CNlkwNoJuOj12MMI7Mn/dJux84ZX2X10T3ti/xntdLbxWXTsePWkzAEicF5NEVNK27Ktt1PlvbNG8pRLzHj002TZ2uFEsIxx3vUbCIxVUYoX2Xwm2bQ/5YP8SBO+OsbyNOZ5oHgHrAQCnAUoreRDjM4HGHxtxWhpnpJZE14rdyK6EMMbzjWAaA9J2aUPo6QO0f/OKb9r+VYSXl4bYYV4yUqyFgPUAQON9ZvArriKZYz/39fO7JhyVzLd2fbg6HOFLSr7Ia0yLVH6WOQIWvgi0/4UQ1bqhSfuXD4tazPNh8whYDwBiQBaPmee8mxSbyO8vQ3TSMXQT0e1SycryIMKhyo68YvAgozrcGrtdH9kztP8sGnaOG7T/s30t2mZHkwaouggAZA+7AVY7TyJJhVzRudRwZkf7mplRVihL8FMDu9Ilh2U3BUfE8l9l2n8+LrbONmT/p2SBoi2ZSLckAi4CAOlguR1kvmKWD+CTSuN9V85osk/9/r7Py0nwk6Qcdhh4DSI8Od8a+neV9t+Mzpuwf3nf+t7vNKPtnFZdBQBK4+mc5nlqgkAD89JfI/jnEVARfuQq+EoC4jFuPt86j2j/zdqAa/tXMVg4qFmVb7TuLACQL6wRLvdBZt94UCPc58z5yCp/JufINQGpSOlKD0l+gO/jw7mM9Owk7d8PhTu1/438ACwK17TqnQYA3BK4Td1S+tjZlj+N01yEtk0FW044dkaPbmm8h3/Q/v1Sukv7DyI85pf0PeTGaQAg+6HH+FQPYZ4pcqDxkouvzlDj1OAAPjGTEV7YRECGJ13oZNJGr1MF0/43zc6bA5f2H0a42hvB+8iI8wBAFoDwX4JAqHGrE0ejcVqqhxH24gg46wQjHG9bmuXiKM6/k/Y/H58mrzqzf41fcUFgg5p2HQCIw2OVtKWlJEWniy1oLEhT+e0aRDjoIkAbRLi7MpMtfZD277/iXNm/bP/0H42OcthEAKBivO17VTnb6lZjaBfOJYzwZduydJm+zFPa1lMgC6KG2NllHKdlo/1PI+Ln3y7sXwp29d0fNKb9hgIA9HkBiBh70unb3nvOQkz136shdrjITheMcW99ZttBgfbfDj0lXDqy/zDCPS1CpTusNhUAJFMBGl/oDpLFJXGx0lZS3RbniHfOQ0BKWqsYb1geCXi3awWYZmFK+5+FjJ/nXdh/kpGTpePdG0CTAYCSkrNj9GovqHTy1r/+NY71dWGZrTfISaa6CCu2+PeFLu3fF02U48OF/Q8ifKccV7y7NgKNBgCSIjjCq31yVjLUZfNLMtD4Q9cr+tU2+ooEbK+MDmKckq+tiuy14jHafyvUlMukbfuXD0IpVJTbOE/aQaDpAGDiDI/Ykc4vqsnXj+2V/5z3t6r0UOMZmwGcdLJWBWiQOO2/QfANNW3b/lk51pCiipLxJABAoHFbUZ7bep/tfc8sMmPfMqSSmaxathUEBBq/ti9FMy3Q/pvB3WSrtu1faZwwyS9pLUDAowDgbNfzA6gYR205DqVxZneM5QXq5mUDCNguWzuI8DkDbHpHgvbvnUoqMWTb/j8e4yuVGOND5RHwJQAQxyg58btaqGbPCJdZc/4x0MdkMuWt3dATQ+xQGses6VOjczUCaP+GbM8HMpbtP4zwhA9i9oIHnwKASRDwhy7mhw4j/MCWwwhj/KYXxuqRkGKjtvQpCzk/MsSHPBK3Niu0/9oQekXApv0n79WhfiXGaky5vgUAmSCgUxnspBiPNYfB8r5LyxqXyjqSpKTpGE/JYqVwhIdkUZGtOghK41FrOu3Ymhjav90uvmv2rzRut4sYqScI+BgATIKAs8EYN3dBTUGMG2w5inCMF7qAUVUZZH9yGOEXBfB9zfTI0iDGLlulnAcaR6ti4ttztH97Gumq/QcxXrGHGilvIuBrAJB26F2Y2w5iPJHKY/xX4/pNZfbsoEpGORkhMAmTzVGArizqpP2btLjztLpu/2qEy89LyyMrCPgeACQOc4THZQ+xFQAcELW2bUwy/vX0X639yBFeNAWbdFLGg7q0RkRHhkFp/6as7TydPth/qHH/eYl5ZAWBVgQA0iFGOC7zXFZAsEhUdjXYchBhhG9aZN1L0pIpzEhxHo0HTQlYqzNOnX3Or8hpisem6ND+zSLfK/sfcRrArPXkUGtNALCxTfC9UONbOWJ4e0qK8lgJADROeiu0RcZMOltTawJsOrk2j3yJGdD+zb4MfbP/i4e4yCyCpLYFgTYFAKkjlQVSaowrtwji6R+Bxm9Tvk3+9rHan8nOT3QRaLxkymzOBaa/M6nflFYYodW7YWj/pixsaYn2bw5LUpog0MYAIO0cVYwjyw/gYl+VaXN+OBzjU77KbYMvpfF0Ru8wdRw8gD0m+B1EOGiKpyk6ra2TQfs3YVkbNPpq/5I/whyKpLQNgZYHAOII3vW1jKTsQZ/qzM04rgjHtymywydsdX6iG0lragK6pFxqzjx+Xf3LF7QJ/pqgQfs3g3qv7V+qxfKfPQQ6EAAkTlWKqKgYX7OHVHnKMkJR1wHkPS8lVctz074njC14muOYJVmQKWQmNmgmyMvw3NZ5UNp/Pcui/SfTdGfVkFkB61nSnKe7EgBsOkqNY5IRzoe66jLHvMlXpkOve06+NueotDOXbH75pDowWUExGEGndI3+tjTXA+2/3qtI+0cSTA8ifLUeknx6JgKdCwBSR6txWpK+NOksbex/DmKcmqnMDl1w0fmJkw4iPGYKNlu7Ado64kP7r25ZtP8N55+8o2PcWx1JPjkXgc4GAGkgIJ18jDdlOFLKDbsqsnIuQ5wy+hU4kcfkF+tcw2jq4kalMSsL/vL0YXKRkYw6WUkNrPF0U+qo2i7tvyJytP+8KbSfVESTjy1CoA8BQLbjT0oOR3hVRgeCCDeZWgU+jbMMW2XbNXUcanx7uq3O/O248xOdBBG+YRI/K8PeLcz5QPuvYFW0/zznL+deq4AmHymCgI0AINB4tmCBllkKd3tepgs0XgpjPKJG2Cd7r5djfFaqyEk+9ksPl09GITUMTDn9LB1ble2K2Irte87ldngqK6vtYym7a3qtiKQvtcL3GJfYxt8kfdp/eTRp/+eH/bPvkLyn5dHkE4UQsBEACE0XK1izRtKLY40zhZTatpsa+PIRe7GRTEmmmXphi5kpNmfy0v6Nfhi1yf53RQja1q21gl9bAUAqvCyyctZBNNEpuWyzo8V/XH/5JM5fvv4tfFXLCA3tPf9LrjYutH9jAUAy+tUi+5cFtqlP4a9BBGwHAMKq7LWu/fK7dLS+tjXC4wZVv0kqHOFL8jUg0zaBxtuJrjROhDGel5Kjgxif2bzZ8EETzn8in7UyyrR1SwEA7d9YAKAsbi21Yf+dXvtkuE8tRc5FACAMhbGluVFfnbUFvgTDUspdcHMQ4RpZYFPohZVUvBpqAclSlxtz/hFuLMVoyZtt5b8vpCcLdudLu7R/Q4FVG+1/DF3yNeTtRRBwFQAILyrCjcnQU4c7KZudZTDGzUV0uvCeIXYEY9wbaJwtxa/G6Y/H+MpC+otuaGrOX+OPMke/iL2611WE9VK48n0o9GVL+68XAMgOqBbbf2trYtTtT6w+7zIAEEGkQAi/kKq9yKbmwWpnrNO4vbJRdtz5Jzau8SgDgGo2Pg832n91TF05f2v2b2n6p3I/1pUHXQcAgpvkNneV6Wpeh9K2a7I1sa7dmdqfLYVeqvAiiYwawd3ysGcWC6XxYCMydnwkgfZfPQCQ0desjdo8tmH/YYxVmzz3lnYTAUAKdjjCd61kTutoR1g3B4BszQxivGXMOWnckupy4W8PvvxTDKzlAuioXRe1R9p/+QDA5Ze/VfuP8HJKn78GEWgyABAxBhE+J/nti3YCfb5PkhLVUb2UTTaNX6hxaxGeurrgL0/2QGO/aZxJD6D9lw8AXH75p++CFfvvWQn0FEvrv00HACLg8gO4eBDh4dKL0vr2RXSoXllMG2lqRWdhhG/ONNQeffmnGMj0CB12BWe16H2m/RdaLCm218SXv1X7b2E67BQPr399CABSgMIIVwcar7PzzO88U5yq/O4a4oM2cZ0VBIQRnrDZ7kzaDuc8p/UhNSZm8rXIyfH6TCc3jXOZv2n/ZdCqd68V++9qFsh6UNd/2qcAIJFGvhhj7LVRSrT1nfIQF1bV+J4RLrMp/7Yvjh5++ae6URq32MS6t7Rp/zODo9Qmtr2HqVE6/LVh/6wHYEmB3gUAEzklTWsQN/T16OlXmEyVVDUDFeOqtJOw+ZvuM+7jl3+qG04B5I9g1bU72n8BXBsc+bJs/2+n9PlrEAFfA4BUxHCMT6kYP6nbeXTh+ToFMZYP4JOuMGiqEqTp0r6pDZb9lYqSrrDuUzu0//kBQKftn4sAy3ZDxe73PQBIpQg09qgYR5TGmT51ellZ62yDkhGVLK0uHfsw7JnaqfxyG+B8R1XV9mj/+bj2wf6DCK9m3zEeG0KgLQFAKu7HDuKjSSY7jdNVO5K2Plc3EYqKJ4V+PJ3iqKIX3zo/sVMprFRFFj6T7+BSXGj/2/Hpjf1HeDH1Afw1iEDbAoBUdDXEhTLkFWo8k3YQXf+VLH6p/FV+BxEOdg4jD+Y8p3XBKavtjsqE3dH+c3Dti/1rPD39nvFvAwi0NQDIiq6G2CkJac5Vt3u+y7kEJJFPVu6yxzKHKl8MJjrjpmn4+OWT6kOGK5vGp4vt0/7PBwB9s/8wxo/T94u/BhHoQgCQhePSw7gojPBl+dq1kfimyY41HOGhrKxVjoVGkzIYa9vDL59UH4HGe8bk7NB0TV1MaP/nA4AmMvyl9r3o14b9y7TaonZ5vQICXQsApiGQqYIwxufVCPclZVo1TtbtiJp6PhzjhWn5yv6dTJ1ovNSUDEba9dj5yxoVIzLS8W/b8077nwQAPbT/qsXHyvaPvbu/6wFAnkJlP3ESFEjCoRhHJtvW3vW+49Y4kSdP2XPJKMkIr3gvb44T9GWr0yzMz01DXdNGXFvBM+0ffbV/U6WgZ723vT3fxwBgnrKlVLF8xcl8uWTPm+yfv0qKFimNa4v+l9oGNjpV4W0e/0WvSRAQxO0KAnzv/AT7JItlTuBS1xYk1XJR2/PhPtp/ZrjekD302f7rFoIq2i/27j4GAHZULhnx6nb6ec8HMW4wxXFbRgJ8XvA0rQsrVQ813l8aYsd0Wz7/Tfs3FwDQ/nHGZ1tvNW8MAOyoL3ggSVy0bR4zz6mXORdEOGySYymSEno8HdCmzk/0EozwThl9Frq3hbXQaf9mAgDaf4Ljayb7PNLKIMAAIAOG4UMpYFGogy8zRKhxzDCbS74GAdL5mRzxMI3bND2L6ZaPTLfVhr9p//WCANr/BL8RHm+DvbeSRwYA9tSmIrxoPACIgTpFUWZJ+5EhPtRUDv+ZGHm82jkPR1tFgAKN2/La8/0c7b9eAODzVr8827Nm/2Pcm9cezxlAgAGAARBnkJDh+pnOrcxX/9S9wRg3z2iy1mlftgi2bdgzBT3ZZjqlKxP6r5sCN+XP9S/tv1oAQPvfittA44uubbc37TEAsKdqyU5owgFM05CMh7a4bjoIaGvnt+v7+LCNLJRCc2mIC2zp2yZd2v9WRzb9Huf9Tfvfipng8ekj+IBNO+01bQYA9tQ/qWBofiGgxllT2wHzpG8qCJCXvU1z/lnsJE1tXode99xA42i2nTYd0/63OrNFtkD7346XTEu2yeZbxysDALsqUxGOL3rxK10fYZ9NziUIkMxrlXirMAze1i+fVAdK45gNrMII96RttPGX9r/dqeXZCe1/Bk4j3NdGu28NzwwA7KoqjPCDvBe+7rlA43W7nC8tydCbiyCgzV8+ogNJGFVXnzOfH+NK23q2SZ/2P8OxZYJk2v8cjDSutWmfvafNAMCuCYQaX5jZuWc6gUr3OHg5bAcBbf/yEeuxVWAp0HjbrnXap077n+PcYoD2PwcffS4BUMsSYNl/owy3wADAMKDT5IbYYaM6lgQMYYzV6eZs/C1BgI0V7m3/8hGsZUum0ni/UgC3OABs5f7/LTZI+5+5Boj2P8f5b/Rv1hY7b7HRPv/BAMC+9oMYT1hyEAhGuMK+BOdaGOICk0FAF758BHcVIbalWylr7US3lhuh/W93dLT/7ZhMv0ehxrctmybJMwCwbwOS0GPauI397ThLVqjxjFI+4HEAACAASURBVAne21DYZJFlqEPYaWt0R0U4LQsxF/HQhuu0/+3Ojva/HZPpfsVGwrM2vC9OeWQAYB9u6chVDCvlhmWfuFQutC/FpIWaIwFd+fIRNAYR7p7utEz9LesKnOnUckO0//POjvZ/Hot570oY4QnLZknyggADADd2YGuhmLxEMsTqRopJK0PsGEQ4OO8Fzr2mcbIrdb0nc/+nc+VcPLc/c144pReO8SmnOrXcGO0fULT/hXa/af8dmf6y/FrVJ88AoD6GRSioA7gyNW4bv7LauggfJu+RFJ2F93lrPKrGuMRk+03SCmM8YkOPCU0LBZ+axErapv3T/gu/Lxonm7bX3rTPAMCdqm0li0lerAjH3UmytSWZ45X0xNtecI3T8uUnVfK2PtHuv1SMq7bJauCrP6XZ1cVPtP92233KvW37l9HFtC3+WkaAAYBlgDPkpWNPO3kbv4HG/kxzjRyqES6XDmJ3jOVGGHDQqIrxmg39bdI8hJ0OxHDeBO3fOeRWGrRt/852NllBp2VEGQC4U5gaYqfSOLPZ0Rv8akxp8uWxq09JzZtibeM3iPCYXQmao077bw57Uy1bt3+NZ03xSjoFEGAAUAAkg7fYSo266Yyk9kBHto8ZhN0IqTDC1TYq/qW6S2iPcLkRZj0lQvv3VDEF2LJt//IetLX0dQH4/LyFAYBbvchCOIuZ45JVtoMID7uVqvutXXoYF8kq7tRZ2/jtw9Yn2n873xUn9j/GC+1Ep8VcMwBwrzybW6Iyjulr7iXrbouSdjmDbeHtTKWe6fjXf2odtP8Uifb8urD/MMbn24NIRzhlAOBekfIVJAlBSjmHkusFJENd11bfu9fURovBGPfa1FVCW+PppuRz3S7t3zXi9dpzYv8xjtbjkk9XQoABQCXYaj8UaPzQulOJ8fbHDuKjtZntMYEwxtcd6Amq5WV/y5oI7b8sYs3c78z+Na5vRsKet8oAoBkDkPS9ThxLjNd2DfHBZqRsd6uy6MmJjnr09Z9aBO0/RcLfX1f2H0b4hb8odJwzBgDNKdjR0Bqkih/rapfTszioYIR3bAcAgcYfBjF2leOuG3fT/v3Vo0P7/+PgAD7hLxId54wBQLMKDjR+bdvJTOi3v7a8I1XJtEnhFMcl12Zs0/UI+xyJ5WUztH//1OLS/oMIh/1DoEccMQBoVtlK49ptTqGuU5nx/CDCk0tDXNCsxH63HmjsURonXOgk0Hi97yMztH+/3gen9h/j1EeG+JBfCPSMGwYAzStcRfiRC4cjbYRjvMA1Afk6l10TLob9RQ+S9KdrFf/yUV18lva/GCMXd7i0/+QdGONmF3KxjTkIMACYA46jS0lp2RjvugoCggivSpuOxGtFM1KmWObjXelA9sK3AhgHTNL+HYC8oAnX9h/EeGUBS7zsAgEGAC5QXtyGs+026fTAxjD3VYs56/4dKsKKK8cv7YQxfsNRmK12RfvfiofLv1zbv7wDzFHiUsNz2mIAMAccx5ccZUjbzGInyYgGEb7jWExvmlOHsFN2SLh0/pIGmp1fvgnQ/vNxsXW2EfuXAFjj27ZkIt2SCDAAKAmYxduliE8Q4XWnDmnji3RVKrVZFM070lJ0JNB42znW7Pxm2gLtfyY0xi80Zf/nEl49ZVwYEqyOAAOA6tjZeHJZ41KXc9GbDlDjZNCDRTny1SNfmjar+m1imk63TH4ln7oNm+kSTdq/XW02af8qxhtc9W9Xv6WpMwAoDZn1B5TGLbOciO3zgcZLnRyiHmJHqHGr7Yp+s/QTavxOKqpZN54ONED7t6DEhu2fU18WdGqCJAMAEyiap+EoV/rmeoBtjkvjwYuH3XBYyfYmjZe2yTj1hW7tusYZbvkr947Q/svhNe/uxu2f8/7z1NPsNQYAzeI/r3XnC9SmHKLsiQ817pfqbfP49PVaEOEaSX5kzbFP4TWrnY/H+IqvGPnMF+2/nnZ8sX+l8Wg9Sfi0NQQYAFiDtjZhGTKWbHGzHIuz8xrvy0scjHBFbaFsExhiRxDjBhXjqDN85gcCe22L3FX6tP8KmvXN/lmHpIISHT7CAMAh2BWakkIxKna/Wn2W8xzoxLHeuev7+HAFcaw9og7gykGEg0GMt2bx3sB51l+oqXHafzEAfbR/WU8kOzuKScC7GkGAAUAjsJdqdDKH5yxLXVFHKavaVYQbm8oqKLiEEe5RGr8qyrOz+3pY4reUUZe4mfafD5bn9n+sK2uI8tHvyFkGAO1Q5EDji86c1/wh7fyFgxrHpLJXMMINUk3MBqpSNnQQ4w6Z13eVs78S5hFeZKY/sxZA+19aaov9S6ZLW32AWasitSUGAO0xgkGEzwUa71VySlWcer1n3lYRXhxEeDjQ2D+I8NUwwtXy1XJuPYFKSo5OhgdlrlcWGu4Z4TJZLZ/IOcbNaoT7Jvb5Wlvk5l5/e+8T7R/5wXe999QsTUkxrqHsWQEpG0WAAYBROK0TEwepNE63JAgw27n41NHl8SJZzobYYd0IetwA7d/fIECymPLLv2UvJwOAlilsaWkpmfvTOMUgwJ/OMIjwGJ2/m3eJ9u+P3W/2QRFeZJY/N/ZvtBUGAEbhdEZMhss9W/Her6/9zAgAS/s6M/vNhmj//gQBYYwfbyqGB+1CgAFAu/SV5VaG24IIr25G4RmnxHP2O0ippqhicJ9/1igdHtP+7dv4on4kjPADhypnU6YRYABgGlG39GSfrUTgi15UXjfcWWqcDg7iOrfaZmvTCND+Ddt1iY+IQOO2aX3w75YhwACgZQqbwe4gwt1NVLjrY2ARaPw6eAB7ZqiCpxtAgPbvNBB4W8oJN6BmNmkaAQYAphFtjp5stWuklHCJr4bWBwwRXmRVv+ZsfF7LtH/7QYBk9/MtC+g8m+C1BQgwAFgAUMsuyx5cj/Lgd2ZhoARWgwjf4Up/v18I2r+9IEBSbdP+/bb/0twxACgNWSseOFd//lsqYr4AEyMO56qqPb8rQtAKxZPJBAHav9FA4N0wxtdpWh1EgAFAB5U6EUmy64Uaz5hwgn2kEWqcCsa4ubsW0m3JaP/1gwDJb8HkPh1+TxgAdFi5E9GCCN8490X0uz468aoyhzEe4VxnN94N2n+FQCDCcUm93A0LoBQzEWAAMBOaTl2Q7VIqwgrTCM/vDMMIvwhGuKJTyqcwS7T/+XafBspJzY0R9i0NcQHNpgcIMADogZIzIspwnopxJH3h+TvpGDVOSCXDDFQ87CACtP85gYDGo4MYuzqodoo0CwEGALOQ6fZ5KS0aaDzb+wBA46SUGO62tindNAK0/41AQL74gwiH6PinLaQnfzMA6ImiZ4iZ5FSPcEjFeLdXwUCEF1WEGz99BB+YAQ1P9wCBvtp/oCHlulcuHuKiHqiZIs5CgAHALGT6dV7mSCW1p9I41tVAYPK1c5hz/P2y7SLS9sH+J+/1UabwLWIRPbmHAUBPFF1CzEGMzyiNB2UbXBeCAdnHH2rcumuID5aAgbf2FIGu2b/SOKFGuI/pq3tq0PPEZgAwD52eXxtih9K4XvYCJ6uDW5TyV6okSuY+2Qvecy1S/KoItNn+R3hHFvuGEa6uKj6f6wECDAB6oGQDIiZDpBFumgQDv/VtZGAyvP98MMa9yxqXGhCZJIjAJgK+2//kfXwtGEErjWs3GecBEZiHAAOAeejw2iwEZDuVpAeV/OBSIERpvO84KHhDyiDLCn41xpXMUT5LUzxvAwEP7B9BjFPyDgQRbhJ+bMhJmh1HgAFAxxXsSrwhLtg9wmVhhC+rGHvDER6SufcgxpuVyxRrnJahfBXjJ8kcZoSbpAwpVy67UirbKYyADfuXKTeNkxJgy8hb8g6McbMM63Nqq7BmeOM8BBgAzEOH10wh8JEhPiRfKVJUR7ZeyVe7inGVpBsVp57sy34Ae6RjU4ew01S7pEMEfEBgkf0vH8An5b3YHWNZUlDL/T7wTR46jgADgI4rmOIRASJABIgAEchDgAFAHio8RwSIABEgAkSg4wgwAOi4gikeESACRIAIEIE8BBgA5KHCc0SACBABIkAEOo4AA4COK5jiEQEiQASIABHIQ4ABQB4qPEcEiAARIAJEoOMIMADouIIpHhEgAkSACBCBPAQYAOShwnNEgAgQASJABDqOAAOAjiuY4hEBIkAEiAARyEOAAUAeKjxHBIgAESACRKDjCDAA6LiCKR4RIAJEgAgQgTwEGADkocJzRIAIEAEiQAQ6jgADgI4rmOIRASJABIgAEchDgAFAHio8RwSIABEgAkSg4wgwAOi4gikeESACRIAIEIE8BBgA5KHCc0SACBABIkAEOo4AA4COK5jiEQEiQASIABHIQ4ABQB4qPEcEiAARIAJEoOMIMADouIIpHhEgAkSACBCBPAQYAOShwnNEgAgQASJABDqOAAOAjivYE/F2DfHBXd/Hh3fHWN49wmVqjCtVjKuCCNcsH8An5bzc4wm7ZIMIGEXgu+v4k79/AR/e91Ms3/UsLrv7OVx51yr+5/5VXLN/DX8u5+Ueo42SGBFYhEAQ4TEVA0b/azy9qF1e7x4CgcYepXF9MMKdQYTDKsK6ivFGadvSOKkiHFcxjg4iPKkixErj9uAgrgsewJ7uIUeJuoDA936GP9v/b/irfeu4865V/NPKKtZXVvGfK+tAqf9r+P3KKo6vrOGX+5/Dk/vXEK+s4fZ71nCdtNEFrCiDJwgMIjxcuoNeEDCEY7zgiXhkwxICaoidYYQvhxr3i76VxhnTdjSPXqDx20DjWTXCPhlJsCQmyRKBXAT+zxou3r+Ov75rHf+4so6fl3LwZQOCvPs3AotnV9awX0YScpnkSSKwCAEV48i8jrbKtSDGK4va5fX2IRDG+HpiLxq/qmIXNp8JNP5wbjrh+UGEuwcRPtc+dMmx7wic+yr/u5U1/HPydZ7nlJs8t4b39q/h+ZV1/MP3nsNf+o4l+fMEgWSodsEXfemOO8JxT8QjG3UQGGKH0rg20PhhMMI7pe3AtF2VoadxOhzhoWCEK+pAwGd7jMAQO1bW8YXE6a/hv51/5dcJKITf5/B/ZX1BjzVI0RchoMbQpjv2IMZbi9rldX8REKc5iHAwiPGmadtogt5A42gwxs1qiAv9RZ2c+YKALNDbv4ZDK2v4r1Y5/RkBw13reHnlOdwyfIH274uNecNHOMJ3jXfKGqe9EZCMFEYgjPDNQOMl4/ZQ5svd4r2BxnvJFMYIlxcGhTf2BgFxkomzXMPZLjj+bTKs4b2VVRy5a5323xujXiSo0rjFSofPr61F0HtxfVeEIBhBK1l5b9H5ekdb42mZ3vBCCWSiMQSSlftriO9axzsrXXX80yMDG3I+y7UCjZmdPw1/PMZXbHTOnHv1R8d5nMh2umSLXZ+cfo6s4QivBBG+kYcRz3UXAdmLv7KGp7d9JU87y47/PZke+NvuapqSzUVgOcZnbQQAsmJ8bsO82AgCyw/g4jDCD2zovM00J9sKb2tEKWzUGQKSjEeGwfvu+HPk//Vda/jfzhTBhvxAQI1xiZWOO8KKHxKSC0Hg00fwARVjb+tW8+d8tVux10k7gcbrzCvQvXdm+B/4H7JnfqVtq/ldj0Cs4T+YV6B79j9XIhtJXMIYj8xtlBedIRCO8CWlccKm4+wabUmQJaMlzpTEhqwhIAl7VtZxIuert1yGPtfOuMH29q/jYUl2ZE0pJOwPAspCYhdZTe6PhP3kRHLvqxg/6ZpzdiVPMlqicfvSEDv6aUHtlnr/v+H/S/bwZx1putCPvxs7HWbhIJjJaMka7b/db0EB7pOUqoaHWkONUwWa5i2WEJjs7njXlbPscjuyUHDPCJdZUhXJWkBgksBn6z7+1NmlAcH03zx/fkREsJngIwsFZdGkBTWRpA8ISNIXGx04O0332pVtfUlufsMBnQ37aBNNSTUsQZV7jbLFMghIspukEE/q3Kd/N75sz+/zn76e/p29b965edfyaLTt/lSGNZyRPAlldMF7W4JAkiXNgsMYxLijJRB0gs2kEt9Gshuz1R0t2EabnP8WXkd4nBkF/XxdJO3tpIreeQefOjD5nXc8fW367zzHvYhm9plpetN/Z+/NHle9r+pz2bbT4/RXaK7iX1i22E/7r8yVOpDUZjfvNMZ4qjJTfLAUAirCSqBxdouzouM2b9MxEMb4zfIBfLKUgnizVQRWVvE351b5n9lc6Jc6rfS3qENM709/yz436/6q9Fw/J/xPy7D9719LumSrCiVxtwhYcRxMCexEiSrCj6zojwHE3AAi1Pi2EwWzkbkIJHn7s04q6zTzHFr2+qzjqs+ZpleVjyweZY9nyZCeP/9L+59rmS26qGK8ZsOJSKKhFsHQKlY/dhAflQVqNvRGmpjr/FN8ggiHWmU0HWJ2uI6PJpnsUieZ/T3vpM5PB6TnijjEWfcWeXbWPbNoLjq/6Pqs9qqcl2fmPTd1XYKvDplUf0VRGg+mnZrJX6nP3l9U7Um+rHEp9/YXc9Im7TmPlpQdtqdpUs5DIJnvX8Pvtzir1FGmv1POasu985xc9nkTx1kaVdqt8ky2zexxEVrZ+/OOs+eE3iqO5OmI51qEQDDCDXmdW91zklmtRTC0glU1wuWyzbKubvi8wQBihMeZL8DN6yPzz5M96vlf91knl3VWTR37xE8RDLL8Fj1ex7/S/t3Yv5VWJOuZLYfABVPmVBaO8SkVg/v7fVyfIIteh7jAnLZJaRoBSVO7ImVtxTHNck5ZJzfvvlnPmzw/TWv67yyvZY+r0CryTFk+0vvX8PTwBdr/tM225u8gSvKgF5r7LBMsSJ6B1oDgMaNhhKsnNe2N66iMPgve+7aK8KKk1A009g8ifFX4l2BQaShZv5Bup7v0MC6SmhSSN0ICnEGEz8nW1FDjfjXC40nFPtmH76PTn+IpycHAUthW3qL9/4a/2lzpnzqdaYeW/Tu9J/3NXrN9vAZJQvRzSamb1CBYxd9I8CKjF//wM4SyfiHdTicZC+9ew59Ksp1kdGMdX1hZx/+6ax3/uLKOf135Kf59ZRXvp4l5ZgY+RWQqgsU8OvOubdD+ueRisGIAJGoXARUhttHJBjHesst596kHB3FdkoxmyuHY0FclmhrHZC5cqkDayqEvJaYlt4QEBUHs7xRIqPFM9y3SrYSTfP6SnjZ/2D89n/6Ko8r+z543fSz0Noro/JNsR7SVQ3+y7uHbSVAg6x+KyDHtsKf/zqORd67cc8+6tQ62ZgQBpXFtpc6/gFMSB2aEyR4Ska9iH51/GGM1iHCTGmJnE2oZHMAnwgj3qAjHbdltVbpBhMeawKSLbSbD/kWceXpP6sCmf4s4sTL3rGJdvtRtOfxFupSAYP8a7k2SH03LPk+ORdfmXU8xnb5H/s6eW8W/LOKf1z1EwNoQc4QfeSiu9yztjrGsYrxd1RGZfk6KPCmN26XQkE/gDWJ8JozwAxltMi1zVXrcIljfQr73M/zZZgnfWc4nPZ/+Zh3RtGMqcy2HXrLtcA3fliH8+tKZoyBTB0k+hI2ph8UjJdM4pLKmv7Ouzzqf85ykZDYnISk5QcBW9bhA448yz+tEiI40ksyNW6jUWNahJbqTYfcRrvAe2iF2qAg32sprURY7ydDoPWaeMphU81vFf275spzlgLLnc5zRTBrF7/1X+eL2FKotbJ0bEfi7/et4rdAUQVb+qhjKc9ln0783zu3fwhz/8BsBmcMt3ckVmAIQmtwvXUL3G47sRVu6KERX44yKcUQKDJXg3JtbpTaCLEQsJGtBG65CK9S41RtQWsKIrCZfWcMvE8ey1aHMXwOQ3pt1bNnjDad0nkbe/ek9svBuFUdk0V5LYNvCZrJoch0/38Qwi0PecfZcHi7Z64uOs9dZRGiLXrz/w9o0QAwMYuzyHgAPGJTV81WcjalnwghPyPSDB1DUZkHWnzS9TiCIcE1tQXpEIFnoljri7O/08fTfWceTd1zw3P7n8OS+n3bD/u9Zw3Wb6wTy5BcM0//p9fR3+nxRvKfu279K+2/N6xvG+LEpRzJNJ4hwuDVANMRoqPGtadxc/S1bQWW7XkOi22t2iAtUjL0qwmlXWE6187at3RH2QGuG8l2r+E7ukHLWKaXH6e+Uw5k5/J3n0LLPbqzm/5/NSG6v1eF/4H8kuK7hv7dhm2KY/k5jlD1f9XgN/9XUYkl7qHaUcjJ0amtIVON9rgWYbTiS5U9tDL073eufZBbUuL3r2bxk8WKg8cMmKieGMZ6frXleEQSSffAy9F7UCWWdd5HjPAcm58QxruH2rieykcWLMq2xGSBl8cjiN+v8tF6yz8w7Xgf2r9H+W/OWBzHenPqCMemQmDs6xxIkMY6kTraIe64OxTFJYp4cljp7Kozx+UZyCYywr7Og1hRMEuOsyKK/1Pmkv/OcTvaeIsf5Turnffs6/d5z+MuVWbUUpvEuguuie9Lra+CiwJrviZPHkyxslkYB5OtL9rY7EaRFjbie9xc9BGPc2/Wv/lkmkGQjdLxIUHZUsEJmvkZW1vD05pd/USc07dCn/04dT975NZyVffT53HT/bDIakC4SnIXTtB7ycFx0T/a6tLOKv+g+ui2XMNDYY/NLNIjwasshMsr+ZOta7he6FT1onJSUu0aFaCkxNcJ9VjCeEUAno2uHmkme5KuK7lrD/9725Z91SlknMu84+8y84zX8Xr6CfcXDJV+TlMPbt/Kl+KW/gnvV4+xz6zghWzxdysi2KiAgmd5sdozBCHdWYKtzj8iXqM2dF9M6lIV+fRvyX2Q0yboXt2svOA02UYqsts/N8Z91OFsdyGxHlH1m1vEa/sO3RD6L7NP29WTLYLr2Iou1qeNpXbCEsG2V1qcfanxh2nkY/VvjNB3R0pLktjeK64wvT2lDMvl9ZIgP1beO7lFIKi062iUg0y+skrlhQyuSUjfP0WTPZR1I9nz541+mRXi6Z8H1JJKh+c2si1m8bRxvTL+0IrFSPVRb/rQM1Vt1TlJCtcf/rO64mAoEZG9/j6EuJLrswji3DfN3Vm1+opcgxiuFmOrwTSvP4W835/2zzlycTtbxTF/L/l38+FnZDtdhOGuLJhUJVySdcHFMt+opq7PscZZeqtuf4t9rM0wCdhEIInzDdmcYaNxmVwo/qcuqf6Vxwja+E/occi5oBrJN1dVujD5nCUxW/c9yNqnDSH9Tp5H9u8wxh5wLWv/S0mSr4PEtAVjWmVc5ntZfqjtmCSysl2ZuHGJHoPFrq05K40wr8swb1sAgwkGruE6+NPnlX15xSRDgoLCQbEWUmg/lOWz/E1IsptDXfxWHkzoY2X/+HJ5sP1puJbh7DX+ajARMYz/9dwbnhaMGefeu4fdcEOhWt6Vbc7JCPcLxXUN8sDRzLX0gSfgzNURvIxhg8pnqBiJBqYvMgX3Mjpkk/JnlTPIcxax7F5xn8pnq9i/Fj6yvCVgHWDWwuo6cPelkSFTjUWcCNdyQraqLW4IIjWMyzdCwqK1uXvbs287MKAsC21pwqapy5as89+vfoPNfkdX+L9D+q+pInksWBsrugFQv6e904DX996z78s6v4WxbCy7VwbZVz9qsEph1WsEYN7cKmArM7h7hsqzMNo6DEd5hyuUKysl5xMUImKQnzmm6k6fuWsflc+eX6zgTeXbj+d9zq58Z89myUHOWbvIc+6x7c87vX8fDZrglFWsIuCitKpnSBhpftCaEB4SDCI/ZcPopTfmiZJIfs4qWssgpvjZ+xe77ErBtVvrLcQRzA4OiTmbjvi+YtYB+U0vqB8zSl5yfvjb99yLdreJ9WXfQb5Q9l17mrZOOyvbctcaZTlakW1pakhK74qBtOJGUZhjhHs9NqXXsuajT0Ie1AN/7Gf7M9nByn9P72nqxZCpFplQSR1/EuS9y+NM0uBbAlurM0lUaD6aOxuqvxuku7gywne8/HOMFsxontRSB4AHsUdpiOWGN96VaYdpeF39XVvEv274WyzqLWfeLU1nHz7uImw8yTYK39zYDuGknntXL9LXpv7P3psereP/vX+i2/fugx1o8SBa5wMH2qCS40DgpNQlqMezRw4MYu2wGTZLAhjXn7Src+lqYCLFdCZqjvuXrv4hDmHdP3jXWnLeu3M31AKnTztPDrHMFzu9f6679W1eOqwYGEb5q05FlaQcab+8Z4TJXstlsR4bms7KZPv54jK/Y5J+0NxAIYjxhWncpPakJcfGwm3kBNovOLHIeBRxF3lfo/nX8NW3UPgIL13CI/oroMO+eNZxhXgD7OqzdwiDCk2mnZfs31DjVhbzpNrP+cb9/bZMuTEDWcdjcGtjVzJibiWXyOv5FTmP6man7ud+/sPnWvlG27K2khYOm9ZIGd+nvrOtzzktlyNpMkoBdBGTFsoskKZvBhcbpNi8MDA7iuk1ZbCyiHOFyuxon9SwCNksIhxF+kW2rC8dJtbk5nX7eF/2Wr8g8h5Ke4z5y5yYiCy236Gdat9N/p7qS8/OuyX1r+KVzgdhgeQRcFrIR5xlo/EHaLM9p80+EMX5sLQDQeLB5CfvFwaeP4AMyPWVRp6pLiJZO/DPtJKb/zjiU/Ws41CWs2iCLFFWqPKKT0d2WwC+jYyYGaoMVLC0tOdsVsPWreW9L4EnYVEPstOYoYqDrK8d91bUM1VvT6wj3+Sp3Wb7+zxou3jJknOnoZ34NznIS0+dX8b7QL8sT76+PwMoabp/lwGfqVXQ/S/8Z3cp6kfockoITBFSM16x1hFsdPzbbibD+sYP4qBMBazYyiHHHJt+z5Kl+nlX+auqn6uOTao4nrehW40RVvnx7bt867kw6/Vkdf55TmHdvxlFIghrf5O0LP5PcAL+f6dBn6TCrv+xx9v5V/GdfcGy9nMmiqMji/ugZzlEWB7Yha6DszbfhJJKEQhqdGipu28sQjHGvDd0KzVCjE9nsZG/+li/FbKefHqe/WSew6Jhz/42/LptrARbpSq5n/+fpO3tuOFgmyAAAIABJREFU495O2H/jSnLBgDhiWx3hIrqSQc3XSoKSN2ER/5Wvj/GUC92yjdkIyPRLsjZlRpBaWbcb9Fr/dStbuhY6/9QxZB1AseOnZ2uGV1wgIPUWSut3lm7FDtJr8svRHRcqNNeGza+hRR2pJCfycTTAZiGZIMI15rRHSlURCEd4aJF9VrkeaPy6Kk++PLeyir/Z/PJLO/dsR1/jeP8q7d8HPSd1AhbpNnt9ns7l2vn/rbd/H/TjlAc1wuNVOjtjz4zxlGTccyr0nMasFf7R+NWcZnnJIQKSstqY/U6NJLRlncssuKXKW+k54nkOInUkqzg+q02ed4vA/jX8+abTTvUzrcPUqc+6np6f+mVFR7e6rN/aEDvOfZk+b6tDLEJXsqkNInxnaYgd9QWqR8Fa7vgIK/U449MmEVAax4rYZtl7ggg3meTTNa2VNWwsEpt2CGlHP+/8vGtr2O9aFrY3G4H963htbhBQRN/59/yv2a3yipcIyHx8oPF62c7O9P0yhBqMcXNTgYAkLjItk9BLFv+NcYmXyu8pU2qEfTZ0HcZ4pK2Q3v0crqz19Z/vEJJ5YpaO9csqVtawf3P+fn7gdnZuoLD92X/2S1JyUwgBGboMNH5ro1MsS1P4CDVuXRrigkLMG7pJRVgpy2uh+yO8aIhFkjGEgMUyz28YYtE5mULb/2Y5eXEE251B6jxY8c+5Nuc3uO+nWN4MAGbptMp5bgecD7zPV5NOMcabhZza1NynlWc0TiTJW4a40AVutub/z1X9+5Zt/ier228LIhwSOcIYq/JfjuWc8OBL5UF1AFcOItydLMYb4fFkCkrWgkR4ONS431X2SGtTXy3d6rmyhn/edAqznflsRz/DYTBXvO23vxr9ZLtnGrjN0/cMvc6yFWYFrKYPL56SSn5Kw06ylIpBg6wRUDGOqBhX2QTJ1rywzYVhsmuhTN4CcXrBCDfYxDGP9qWHcZHsOik8yqRxOtD4YfCAvfLSsu7ERuDa1nUAybxw2tmnvwYcA4f/896I5s/dtYrvbDpxg/peWQfXATSv3uocSBAQjPCOjc6xLk1ZqyAdt/F0urIYUuNsXf62PR/ZWf0s6xWCGK9sa69gkDXQOBqO8anqVlLwySEuUDHuDGKcqsJroPFHyRthY/RC5K/C08JnohbWSB9iR+n0v0WCA67+L/iiuL9tZRV/sTm/X0SXBe/Zv9ZC+3cPv98tDg7gE74GAdIBi2MIR3gljPCDj8f4St2a7CLvwo69oHOdomM2OYwEKiPoqTbOp1wuwaMEPDIUb8sSxWmLjozwGuPUcozPGuV1iB1Wdn1otC7hTaGtYVW+EpkcxqjJmia2sob3NkcBCjr4hfevtc/+TePaCXrLB/BJn4OAbY5F45gEBLKAMFnRfwg7iyrCVgKgMMI3i/Kw6D7ZrTGI8OQ2uUs4/bxnZZ3AorbLXk9sx8Z6kgg3luVl3v2hxjN5mNQ6Z2nUZ54cda/JsO3Cjr2Kg+BwcF3VWH1+ZR3Pzlm8eT7TXxndc9THqs6cEpc5WBXheK0OsaaDqtW2rGeI8KKsIQgj3JPM+2rcLtsNZS48jPDlMMbnlcajtdqZIaPJJEfWFq1JHvsIT5gyrN2yjiTGuzbwTGgaDAJsbQc0hWVdOt9dx59I9b3vPYtLZHHW936GP5Ov/WTL3yr+QrLzfe85/OXKKv7FqCOYOAxZbV5XBj5vDwFb2wHtcUzKzhGQBVyyotxahz7Deba+PY2TppRlK0DJYiyjJ3X5lWF/pXEiS9f4scYZUwtCg4O4zjh/Ys8jXF4XyzLPi6OX1fYrq1hfWcV/bpnbFWe86H+V4f2UZt6zcm4Nvy8jA+91j8A9a7jOaOA3sYW7nsVl7qVhi1YRUCPcZ6Wz7GgAEEb4hQmFWK1jP4V9GOPrdXiejLZUWpNQxrZkUaEEpnV4lWeTyphTGJThY9a9gwhfrctbkeeHL+ACWc191zreWejkU4ed/qaOO/2V86aON2j9sogMvKc5BGRUyJjOs7azir9pTiq2bA0B2aOtGiglPKuj9fm8iaxwSZbGiivoq2BTp6BNYhsWnOksOWQxpAlDn0W/1vkR9pngbR6NSeW+X275gks74aK/08GAqSBgDWelrsA8/nnNDwS22E8V/ec9w9TPfijXBhfJV5OlXOq1Ol2HzqcInyZW2DdRsVFGHErbjayod71WROOMiRwLQWQ+DbaJ6ZR5Ohi+gAtXfop/3/L1lufM03PTnXT27zRYyJ6reyzPr+Mf5snAa34gsLKG/9gcPTJkC/vXcMgP6ciFFQTUEBdOkvNYH+4t4mx9vMdEwp0mdmFIroWyRmNtLn1BUCcLO8vyOn2/GuMp0/ZjYvRnms/s30nWvqyTTjvu9Dfv2qxz2fOmjoWP5/C3WZ557CcC+5/Dk1sCyTwbErsoYxtrYE0AP9VtlivZPhdo/MF0B9oFerIVsQ7a51b9X1MWh2Rb2wFcmbY7iPEZFWG9LJ1ziw5VSqPIryTrKduGDOFnE/wkOzNKbh2UPANF+Jt3T5KSeEGgUVY22a45r8061/av46+3dNhlOua0I88+M6vDr3N+HZAdBnXk5LNuELhrFf9UagQgazszjiWocMM9W2kcgSR9cISXy3aSXb9f9sLXUY4MIxfGSOOMbGmc1Z7kIyhMKwaS8syziOWcDzTeLkxf49iuCEEOmeSU1AQoTEt4jbFrFq0i51WEuEx7Re6V9MxF2q5yz8oqjpfqsPMcefbcjE681Bef0MjSWcNZ2WpYRT4+4xYBydxXO6DM2tPGMQtAuVVj863Zyq1epMP18p6SX9HTGiyzor7IvH2paocjPD7Nz6y/1RiXlMFf1pDMopWeDyK8WpRmENerbSBrNYq2VeK+11JZTP7KV/UWR5t1ukWPc5x17YBiuu11QHIOmJSdtOwgsH8d92yxqe3OfGtwN63rnPulroQdbknVawQCnSQOksQ7vV8bULdeQdFFdbJOoIhRyLa5wnqJ8HIRmnKPjHQUpqvxaBG6UlCnMM0Ye4vQnHVPMMKdJdoqatdWygLvX8O9pZz1rM4622nPuqfK+cwzf/8CPjwLc573B4GkKJDobfp/1kbKHrMssD8KboIT2U9uPSGM50FGXdwLLwAskXs+0HipkLMrkcSo1AJAjVuK4CLD+oX4lLoQUb0Vx0rjlqJtlbjv3SJylr1nZR3/uuVrLeNwa583SWsNZ2WnQln5eL97BFaewy2bUwCpo09/q9rEGt5zLwlb9A6BQYw7Cjsyzx16ic4/+Uqsq4yi7ZVZcKY0ni5CVxZ2FuVfkt4UoSn3FC2VO9llUuxru+Cowix5yq6PKCrrrPbqnN+/huc3O+uqnbM85+DZOnLyWXcIJHUg8myiio1knnEnAVvyGgF1CDsHEQ4W7Ti7cl/dTHVFR1BkH3tRAwg0flsEX7mvKE2p0leEZnLPCPcVoasO4MrCNMf1EgLZyLRYdFqmCBbZe5ItW3mddd0vNgs0JVFRlnce+4lAkkI647gLB4fzn/lvP6UlV40hMEkgZKXoTmFn4XKUYYxL6oCtYhwtKpeUM17UVhlHXSaNsazoL8qnrGtYxKdcL7MDQubwi9CcdY+Ksbcw/0XtR+PErPbqnE+2bPng7Od3/mfFidy9hj+tIyufdYPAljUAZWxr/r1W7N8NImzFKgLiMJJ94xtFXYoN8xbteD26Tyop1gFSjfB4UcdUZNvZQBcPKMqWCC7Kp9wn00LzcDmXmOdKVcI2Ph7jK/PoLbomyYTK8F/k3irJlBbxKdfPbQH8uy1TAAUcceEvumyHXpTunPtYEKaIRpu/J1lYmtV9kWPR+xzdS3bB5iUjB14joIbYmRQYsl09rqGgoG4eAEmMU8TZpPcEMZ6Q2gHTShecwxjPp/cV+ZV58Wk68/4uWy0y1PhWHj0ZpSi7ZuQjQ3woj1bRczbyAMhiy6Ltl7kvSQG8hjMLOt/kC7zWPUWcwIJ7mAegjGabuzfJAzDfmW+3pwW6X1kDC0E1p9L2tZwUkinxxVvEiTV9T91MgElp3bLBi8ZJyWyXLGzbWN1+pKxDFdzKrl+oMo8exHhFAkD5glcj7CsbRCT6LbEDYtZbYSMToMgyq72657clblnUGZft3PO+7irQYCbAupp28/zKc/i/SbBYVMfZ+2bZ3irW3XDPVjqFQLJXXRzXGE+1PcVw3QQ1othKTrFs0DB9/xhPlTUqKcrTSMAV4cayvE7fb6MWgIzGTLdj6u/vruNPVtbwX7W+8LOdeJHjWR39vPOsBWBK5VbprKzh6S3TSvN0Om0r03+ff/ZfrTJN4t1HQLaCyRazMMaPVYx3G3Ew086xxN8mqgGWWbhnCp+qUxdlFu6Z4NXUPLvS+JUJfrI0JJ2xzTd0ZRV/kfvVNrtDRqlOfprO9N/nO/qtdLfex2qANo3AEO2Vdfy/ucHkVp1unfufYQcsBW1IOSRzHgGlca0UkJkUtymee76E08524nWPyy6kOy/p1iPZ51+Xl6LP1+FZpixcjtrMq32wFcH5fxXFpsx9UsZ5fqv1r0q1vZV0PcB0Jz2jY94SBFR5ZhHd7PVV/Et9KUnBNgJznX9Wn+lx+iv2M8OGZGGhbb5Jv+cIyOI2yUIXjvBdFeFHKsZrZTpp2/eaqFQnKpbKfE5GQDRO1i6sYyer3vadIiVqFcx7TXaPcJkVOzAwNTGP7/Tavp9ieWUV61sce7aDLnI8oxOf1bnPPZ+l9VP8e8onf/1EQHZqJPrM6m3esVzLXp9lX6v4Oz8lJledRyDJTR/hxlDjfsl8lyw2i3BcaZy00tnPGmHQOG0KbBXjqjJb48rKGWi8V3Xof1rGZJRmFiZmzh+V6aHpdqv8XSaLYRlMTWFZVKYkm9safl+qM0877/Q327GbOF4Dk8EUVWBD962s4m9mBo+zbCBrL3JPzn3cAdKQQtlsNQRkFXqZDr7ovVIquRpH25+y5axk2F5GUra3WP3MZERm+5d73QBA45iM/FTnbOuTyTbUujzlPW8oQNnK7eK/7lrH5fv/DX91bmpgvwzDJkle1nB7kj9AOvt1fEHWD+xfw5//w88QDtfxUaFaOhlMTqefF3wwF8BinTV5x13r+MfNACDr2Msc59wrC1WblIttE4FSCAw0vljUqZe57/9v7/pDJDmu83IoQiRBMUZJ5NNtT1sWQpgQjBIFAsFJjLFDjJ3IKGBbEISJwhHEISuRZvYkjjGJp7tXjgXCJBwEn40NQTb+K5ym53TiJEJighVM4JwgLuYknEhIQtyKIxyHOb7s17s1+6a2u6dnpqunf7w/lq6urh+vvlc7X3X1q/fmOb1ZSEhG3uM5+QjvLCJDXlkvwv96I3x4UTmKlKeDHS/Ajbz+F3nmBThb1pu/kZ8eDxeRoUhZL8JPTftNuT4V4+NTIihC7ik/+ofeBPfaOd4UDLooJ8/rTxdu1FcR3dtlDt+rF8AuTqYmj3mpM/dpb35WnovjYInr3RArh1zuBfgnHt9zqTdGhSxlwVIwhsAiY6HTpCKEvmgZL8T5ReSoQ1n67Z8SQXFyP+wgRpJBjBuMXVCH8akMhxEYXsTNgzGuz5B+Ed3PKcOAVYd70xxFoOYI+BFKP1ngKigMofQj/DF96y9MUAF+vBnio1WpIyHaEb5MO4NFZE12D0J8a1XDxKxxutr1oWOhrD7rnD/1LSBJPCs9hwTMYmJrgnfrPOYuy5Z8KqJ+bR3b90V0LcowXkWXcdWxNxQBV053XBuE9QJ8jKST5/HPC/Amz+mv6p1wFdW+f4hb6d442cq3dkqshcEPNkM8xuBRq/Q3r66/jcDqtxSbBXpFnNd3HZ8nDmGK/vgXKbdPCmoQVkdtb2xkepQUZL7QZ6H9OcHogvUcsUqlCOQg4Mp6nd/Cc7ot9RFDLzMIEW0FEnuBAHeSeEvtpKTG+PmB9gdclDAAkKs3/SxxXTgA4oLiWIC7svqsc35iEMYfcfO3IhGYdvRMeD21PhjjstHRDNGvqH81/KynvlWqOQh4Izzg6I3w0pyu9XHFCPS2ca8LXe8GOfqfiodSWnfJkbD9t7gpMdj3yy0KdP6XpqVyGuKuTKLjNH2m5RVdFMR4oxwJtRVFoGIEjn4Vt5VptS4Jhm/jFQ9Hu8tBwJXb4lU8KeaIW8mjxBDQ/Pjb11UXAmPcV8kgtJNCCPRjPDNd5Bldr6pjtqPeHwvhr4VqigDDuEriLivthXimpkPunlhDHHHmFCrAQ00GNDkWJgnBJgX7XpbNSZNwmoxLq2Qf4siATqNy9LX04uBcs+d/q/Ssg1kcAT/EoCzSn2knwFuLS6M1XCBAp0czusk3SFzIMNC14aILPGSbdCCU++O/LGnEeFv2o+n1IZD4fOBCbsnF3HR+pNSna+r1jUx7VgRWRCBxI1wiIUiioQX8iuJp9RIQoP8DqZey0l6An5Qg3lqboIfAzDfDNNJIIYEpQdiLBX07XKtuTeeDCc5m6tjWWZrOTRlzNXNgjMumD70qAo1FgN7xyiIF2U5Z4WsbC2wNBN/8Cn5N6qTMdFPP/9tqSazD7R938yNvE0JauayyE/yn3ZfeV4tAssCzdZitr/xdArudMU5XOxrtTRFwgIAf4XSZxCDboj9/ByJrkwUR8CP8o9RHmel1+lgoOPxCxejIJfMt3iaLeff2AmGM+wsJoYWcIEAjvalubd3ZulrweX+M33EitDaqCFSJQC/C75dJDLItRiasciza1wECdKHs6pRHG7b/DVL8IU9IIo0QSArmL+15Wp4kEg0RbGCu/MrgT9Ot/yw9SV0tomfd/q9cn9qhQwT4gy6Ju8x0lW54HULUuKYd7+ycbBwgOQLvRg98NXMRkEceBQjk8XP43Zyu9ZEjBAZjnM7Uqa03o2NztZ8fvn/SkdjarCJQPQL03lcm6cu2dBegen3eMcLdXoCfST2UlU52FbZxe/Wjctdjchqg6I+/KWeukhzS8nQXwJ3iMlqmd77p2z/1I3WUl04rm1L+ZIwPZHSt2YpA8xDwt3G7q+1iEk9T/cU3T5N7Ervy75DosoHR/+bp8S8v4LYpYaSRuE0C8l6Wl/kyHUPDBM9TQonPZ/w7SP3MS6c9t/I0+l+JitKm6oOAq+BA+2+eVxiCuD6jba8kPH5Z1tt+Wju9EF9oI3oM5Zv7vX+W0A9CAzNfPktLx9j5Uqzzv4p5MziHh6Z6LKKbeWVsfU7wYBXj0D4UgUoR8CI3sQGmJBLgm5UOqIOdMTiSM69/9BcR4C1/iFvaCG1/gk/PJXJDFpIUrDfEKfnI/L3yZ9qIW53GtO/e+cDrn9TBsunZem//1QS/UKcxqyyKQGkIuPIJYBYBvRCfKk1YbegQAr0Q3zNYu7h6AfqHOm1RxmCC1wstAiQpyMVAVnq/PBcZLYKrdkOZ7uJI/SyatnXIe5MXt3v+106hKlC1CPgRHnVBHKLNK1WHwa0WwfX1RjsLgfNCLn0L1rtydIifX98I3fc8iHE89Q1ekogkBEMMdp6db+5j7Kj7WDd63Irx8JSo5+lD6nNe2jyPsaNv/250p63WBAFu73oR3ilICMuRTIh/2xjiSE2G3Aox/BHu8QNcc6k3bxunWgFWziCGF3HzIMYbU4NAQ9w2oRhSsPMLlN+a6PzPUcFSj7YmuGf3JMe1uYs3qbcF0/24/fN/KfC1UrsQ8Ed4wiWRJG1vI2gXausbTbJoC3DJpc68AFfveha3rm+U1fW8NcZjMwuALFIvmm8vEmLc6MeIqhtRu3saXsAtgwkuOXn7NzqOcZX2Be1GUkenCGxsbJBQ/AhXHBPKjbZak1c6iRjqN8TEpa66tmBLCIXhY82Pv03gRfNlOfm2eZCv1uSr/rMw1O8Yk5kFm8S6SPpAHwff+pln/nTBtqqWtH7TENgMcdI5qURAb4Q/bBo2dZK3F+EbrvXkBfi/o1/FbXUat2tZZhwDFSGRtDIyT5KMyO+/gE+6Hkub2x/EOCOJeqm00EfqQiLGNT3C2eZZpGM7hMAvD/GLfoQ3qyCXtgSVOQSi4wxvhMC1fth+2y3/09REY6/EFsC8BUoCL5qW5STJzOZf2xrjt9Nk0Lx8BPgZZaldGok/0+ZP6sikeVXL/3xF6NN2IuCH+FwVBMPPDd4IH24nim5G5Y1wogrdJEF/hrjJzSjq3epgjPunb4SGEGzyKJJvE4xdJ8YOw9bWG416SffEBCeWIn8b+zx98tlu0J/hhW7O/3ppXKVZCwK9bVyogmh6Ad7xt/GRtQyyYZ3SSNOl2+YZfQf4vYbBU6q4K39fNoRjrmYxYBHP1gTvnjyn87+I8mY+z1g4ThdsBmeJe1Y6q40YNzSQUxGNaJnWIuAH8F0fLzOEQ0tzv+OEM28i9Ub4O4OX66sX4Xvz5Gn7c57ZT46XSfLIIoy8fPlMtmXSvMa4qoSTP6MG5/D3uVv283CWz/PSE4BOhfKl0aeKQAcQqMogMCG0ANf56aEDsC42xCFu8kd4zjXpm/Zp+PerT+NXFhOynaWTY4GSLAxpy7xV06zPvzGu74Ym/nw7kVx+VNyGH0zw3ekbfhEdGEyLlLXLxLg2nOj8X15jWrNVCHgBfmzIoaLriVYBuMJgaJBZ1acYo9suGv7lqag/wY+mb5422dv3Npks+nyv/CN58nTpWWKQOcFLM/gvimmaTrLaYFk1/OvSFNOxzkOARnpVfQowJLT7+eGbbXc9Ow/3Y1/Br/shXp1iwoA8jv96I/xQPTXOaubxF/Gh5O08jUjS8mxyKXJvl4lxpuuuZ2kXsbsj8uqhN/9lMC9Sh2Wexytq+Dc7//VOEdjwAxx3TT52+70I/93bxr1dhD+Jy+DYva+NN09kaKyG9Nk2E2ZWkslh4j4IFWzKmWtWWfl8tsylrhoH7ntkTHfvO4sRpgsEmS8xLZqOsXMyxgfSZ4DmKgIdR2AzxPdTSMPtWyntAkZ4oitvpfz2Xol3v5SdhM0An+j4FM8d/sx3aEk2djrt3s6TpCSf2fm0C+CWdEfiZ/Db+8zpC4mHSZurxM1O897Om1NPHTPlTn992HUE+D3ai/DTyhcBe14Df9jq3YAhjmxG+AtvhHfXge9miKe7Pr/njT9xEzzG5UWJJfUNVZKTJKas/OfxSqt3A+jWN8YjPBI5/d4vcZFpiRHT9r0pa65Zz0V+P8Yz8/SvzxWBziNwLMJveQF+tg6SSs6/h/hW2yzU6Q3RCys3tJzu3Oh3/+L/1vvfpa9nko4glcJlZB1JWjKf6b37M22zUKc3xEGMi9OFksQgLZ2WJ7GSz2W+nTb3u9/9u7LDUnyma0lFIAOBXoAvrmMBYPrkMTW+sfpDvC9DxEZk0/lRL8LYjGsdV+443BHhWCMAq4mQu9HnHkzI2BAIr6ukswhL5s+mr9EVbtN91CeLqQnOTrE0OOZhacrM4nFgd2E/zypn8mPs0N9DTaaWiqEINAMBf7saX/S5pBjivV6Ip/hpohmo7Ul55wh309FOZR79Ur73E9dkIRXhN5uEXV1k3Zrgr6fEZchkHnFllZP1ZBmbzGS5vfROf4KnmnZaYOss7s60p5Djl2k5dpmflpZ5eRjGuDoY4766zCmVQxFoFAJVOqfJWwgkroQjPFr3mPX+CPd4Ib6dN5Yqn3lP4+ONmnA1E3Ywxnem29aSoJZJG6KSdSWRZaUnAL+b02q+7jHrtya4J8Esbaxy3KumZX2Jm8yfAE/FOv9r9i+l4jQJgd84jZ/zAvxLlaSV21eAazyp0IvwWcpWBywTq/4Ij/I7e67sGW/pLupw54EY1QGfJsswvIibBzH+tZRFgCEqcyVZWYSV2o8sP8Z1urBlICPKVgdsaa+QHOl7Hq/MjEfKXXZaticxNPm87mJUB3xUBkWg0QjwOzyjxrkgqpXaDPCeH+G0F+GBY1/D+6sEmY6TaNHfi3B+pTE4WhR4Af68Sjza3Be/wyfOagxhS8JZJi3rGMKSeXZa3s+W3xmMcXpwDn9Sta0AoxsOYhzvxzg//UxCOeWfkdVc5ThWTcv6sn2TH+N4m+ekjk0RqBSBoyE8P8JrdSQ7IxOt7BlMxxvhAX6DLwsg2h/wZAQJn59E1nWMz4xz3pU2E2WNXdvZQ4DOYxg6NvUN3ZAOr0XSaYSVV9cub/dxUPfi1hhf54KA3+DL0l3iqneM+3iEj9/1U4/xGRnt64FsB0Z8pow9jkXyZVmrD9pMlDV2bUcRUAT2EeBW9xpiBkyPss0jvrTniafBCONeiL/dD3p0wg/wEBcJfoA/YHTCD0b4DAMU8a15M8Rj3jZO9SJ8oxfin/0Ab6W1W9c8JX93/66JAxt5lG0ZArPIqtCCQvZjE5+5N1fT/sH1Ep3u8Az8YIInExI/h4e4SKBTHEYn7E/waQYo2orxcGJnEOPUIMaZ/U8fb8+81Zt20/qz8/Lu5bNF07YMsv4ET7qbAdqyItBxBLjV7gf4j7oSYFflot+GXogvdHx6Oh8+jfDoS74Qcc8S04E726x8Ept8ZtLmmk98s3VN2WWvps+sq5TVlJmXJ58vk5Z17D737h90PgG0A0Wg6wjQEr9OBm9dJX0zbh71U2v/6v4rky1xGgZKQnKVZruybUl8WfmmzKpXu++i92nljCxS5kXTsg1ZNwbjCXysuhmgPSkCHUeAUfy8sJ4GcIYYu3D1IrzTavfJNf0/SxYBxsGNJKay0rMEd/D9PC9fPmNa/km5FsmX9dLSRfNs2dLq2WXy7k39GG+32n1yTee/iqUIJAh4IZ7tAtHWcYxegEu7IZV9nYrrQ6DP7+WGUA0p2cTlIt/uM60Pk2euUq68PPlM1rHTtgzyuWxj2XRWPdPvGJeffBG99Wlfe1YEFAGGEX5oXbED6kjMVchE98JN847Y1n8VOpsZxNiZ2aqXZOginUWOMt/u176XZWValpP5aem0PNaXbRRN2+Xse9PX3vVs07wjtnX+67gUgY3NEB+t+/FAlCcuAAAEbElEQVS4KojZdR908MPTDDrl6oUA30STYDckrSzicpFvSLFI24uUNeMo0m5ZZYrLp5b+9Zr+Ko0isLHhfQ13Nu2YoGvCLrN9ukNWY7/6/qfxjbQ/wT+kWvKXRZJ2O7y387KItGg5U99cF61XtLxdzr63+4+xo6596zv/VTJFYIPuef0RvuwHuF4m+XW9LS/Ev29GOKpTrP4IJOfqY7xd2ULAJkoS6TwynVdG1nfRflqbaXn7cvQn+BGdMdVf+yqhIqAIbCSucgP8oOvEXcb4ewH+RqdUsxCg06DEZ78kUldpF+1KMmb7Lvqw27Tv92VgVMZmaV+lVQQUgY2NIY54I5zwAlwtgwg710aIl70Ad+pUai4CA3rdq9pAMINIC5M468s27MWAvHebfonRBZurfZVcEVAENpI4AiM81zkCXzbQD90Ph/icTp12IJAYCDKssCTVOqalTJLYs/JlmTLT/HwygXr1a8f011EoAnsIMKCOehBEZmwDHqX0Qjyjx/va+R8zYECdPDfCkmjrmKZMtlz2/YoLAcYs0ON97Zz/OipFIPkswLdbP8DruiOwtxigK19GMeROiU6R9iPAwDtJZEGbUFckz4ScSybkQ22WLSPboyvfMU4//iI+1H7t6wgVAUVgwx/iFn+EJ7wAb3Z4IXCFJyYYYEmnRLcQGF7ALbvE1x/EeCPztIBrMl+m/aJ1ipSLsUMDvy/FOv+7Nft1tIqAQWCII5sh/oie7ejkpiOLgdf8CCe4CDIw6LW7CAzGuJ8he6cLAfOWba5FyLRuZbJkp5xjXGZYYi6Cuqt1HbkioAjMIECL980QT7fRoyBPQnghvr0Z4BM8HTEzcL1RBDY2NrgF3o8RJacGsgh03flF+ifJH16QXB2M8R068hlewE2qcEVAEVAEUhGgM6FehM9uhvi+H+BaU3cFuKPBiIneNv6U0RNTB6uZioCFwPAibuauQOJHYIzrKWR6EB2wCCFnlTlM0vPbTSf3w/XYZ4wb/RjneRRSDfssJeutIqAIzEfgrmdxay/An/W2caExC4EQL9O+wd/G7fNHqCUUgWwE+i/gl7ZiPJwQqSHfPOLOe5a1EJD5RerL8unpl2jfoJ77svWqTxQBRWBBBOgKtxfgi36E036A/6rNgiDA6wyL/MEIn9E3/QWVqsULI0BC5WKAFvO7JwlendoMmIVBOhljpty8MvOe232xfIw3tsb4Ol0g65t+YXVqQUVAEVgFAX+I9/VCfIqucvd3CKo4UfBaL8J5LkJ6AR65Y4S7VxmD1lUElkWA1vMkXVrSDybgW/fqJwrm7QCMcTnZjeAiJMYj6qlvWe1pPUVAESgdAb6B97ZxL30NeNs4RcM7P8TLdEDESIVegJ/4Ed70Q7xndhBodOgFuJQ4KQox8Ud4jufyubDwAxyn4d6xAHeVLqw2qAiUjADfwE+ew0foa6Af4xQN75LFwZ4Doov7FvhcKOxMbQuY5o4Cy/A0wgTf5S7DvkHi8f4L+OTWWV3o/j+7wFFUdjgBCwAAAABJRU5ErkJggg==;fontSize=14;" vertex="1" parent="1">
          <mxGeometry x="133" y="-532" width="78" height="78" as="geometry" />
        </mxCell>
        <mxCell id="TTbmBz7x6POpJ1Bqss9g-69" style="edgeStyle=orthogonalEdgeStyle;rounded=0;orthogonalLoop=1;jettySize=auto;html=1;entryX=0.5;entryY=0;entryDx=0;entryDy=0;strokeWidth=2;" edge="1" parent="1" source="TTbmBz7x6POpJ1Bqss9g-38" target="TTbmBz7x6POpJ1Bqss9g-36">
          <mxGeometry relative="1" as="geometry" />
        </mxCell>
        <mxCell id="TTbmBz7x6POpJ1Bqss9g-38" value="GitHub" style="dashed=0;outlineConnect=0;html=1;align=center;labelPosition=center;verticalLabelPosition=bottom;verticalAlign=top;shape=mxgraph.weblogos.github;fontSize=14;" vertex="1" parent="1">
          <mxGeometry x="134.5" y="-708" width="75" height="75" as="geometry" />
        </mxCell>
        <mxCell id="TTbmBz7x6POpJ1Bqss9g-68" style="edgeStyle=orthogonalEdgeStyle;rounded=0;orthogonalLoop=1;jettySize=auto;html=1;exitX=0.5;exitY=1;exitDx=0;exitDy=0;strokeWidth=2;" edge="1" parent="1" source="TTbmBz7x6POpJ1Bqss9g-40" target="TTbmBz7x6POpJ1Bqss9g-3">
          <mxGeometry relative="1" as="geometry">
            <Array as="points">
              <mxPoint x="168" y="42" />
            </Array>
          </mxGeometry>
        </mxCell>
        <mxCell id="TTbmBz7x6POpJ1Bqss9g-40" value="Terraform" style="shape=image;verticalLabelPosition=bottom;labelBackgroundColor=default;verticalAlign=top;aspect=fixed;imageAspect=0;image=data:image/png,iVBORw0KGgoAAAANSUhEUgAAAGQAAABkCAYAAABw4pVUAAAAAXNSR0IArs4c6QAADfBJREFUeAHtm1tvG8cVx+W2aYsGbYGmQJuH3oAklhwn9bWxY0mc2aVVBE2iK6krJcoPBgqiUD+CvoKBvOSltRTHSRTHdkPBKNAUAVqbcmzLsmTJusWOLpEoUnbqAC5suImnODt7dmaXs+RSIi2JWQMHw8tyuTw//8//nBFZVub/8zPgZ8DPgJ8BPwNFzkCUpo9E9dv7i/w2/um9ZiBK029EtdSjqLbaHyXpn3t9nX9ckTLAgaRZVEuzKE3fi2qp3j+9Mvu9Ir2df9pcGbABAShamnVpqZluffXVXK/1ny9CBlRADLUAGLr6j279zo4ivK1/SrcMZANiquVht75yrP2VOz9yO4f/eAEzkAsIqiWqp5a76OrR3l72rQK+vX8qZwY8A0F/0Vcud+qpg87z+PcLlIF8gXDF+G1ygdKfeZq1AfHb5MxMFuiRdQHBMua3yQWiUVZWVgggaPx+m1wALoUE4rfJmxAIqsVvk9cIp9AKsYCY/hLV00NRcrt8jZf3zXtZ0YHAFoyejn3zMrvGT7wRQEIh9t01Xu6mfllox8D6P9dGAOnWUn+MaumBSPCLX27qDHu8OEI+/g6tHjxaXR0/5fEl7odtBBAoYYbXmH9/iZLPvu9+hZv7Ga36nEYqB6+T6kFGqgY/XvfVbigQa7BMz0a1dGjdH+YxnqC6+uwvaFW83wABMEoJiOjMVj/qosnnH2Ne836r1/bGf0Cq472kKn7fDiPOSNWHpaEQAcT4a6Xx95ejwS9+nHe2ivyCQCD+WqAqPmcHAaUKYMQZqSxBIBYcmr4d1dM9oRD7dpHznPP01dXndpOqwX/bQBglygIBMBg9WMpAtBSLainWRVPDXTR1KGfWinDA7w/+/SeB6vixQNXgVzYYliIMVTB66ENGD/2tFIFwCAYIgGHECuvSko86tdRAJLj8WNpkbGNJ1eBqVhCgCgAB8TIAOVsqHmKqwQYBQGAkAQrrosv3olqyt5htsq2NFd2T7BOMGiBMGADi5bMAY6sDcaoBky+vJgiAoSVZp7ZsRnI2oiUL2iYr21iVT2B5soNg9OAZRg+c3roK4eUIypIMAG67QUAYsC5hrLtNzt7Ggkc4fMIAIasCQJixf0sASWVsLnbpyZgdhBOCrAYEYUEwYXzOItrnrEP7/GFEXzoWCt7Mu01Wt7HYOTlAoE9Y5UkC8dJppr10mtFCAOmiq3+Iaumk1W7itvm6V8kXHLu9HMhaICwZEACEiEUW0RZZh7aY7NAWur18TcloYysH/6U0bD5PZPMJoYgDHATA0H73QWGAQLcYqVl5Er7T20XTD9YHxsUX9KRt+10GInzBTQnuEACEiAXWoS2wDrow3E7nlW1y7jb2Qz5PZPUJwysYNVUBIIzYf4rR/afW7yFy+36Erm7vJqlz+UFxQlD4ggNIRE/GcoOQVQC35eTj7QUWAQhWzLMObZ510LlH7dr8n+XPpled20GqBv+jVEWlCoSLT2SA+IBp+08ZQfcNFBYIfoAj+kqwi6Ym3MF4gCCbsysQtS+IcqQC4QLBAAEwDCCsnd56Az8PrITEiQXDbbDz4BOWIkAZJght3/sMgu4uEhD4AEf3sidg6yJKU18KMJIvWEOb3CWpfQEUIScnoi/FpE5J8gNUBSoAVycEUAWqQUDooHOgDtZuhAKIE4RzsLMM+6zwCVSE6RNYngwY+04ZILS97zNt70BxgWACO6pWn+7WU2920ZWvxeQsQ8jdqgIAPB+scN+uApUSAIZcjrxAABifmeEAUhkn5gagZ8NW+YQNBChj74AR+p7HBAQTGSHL+zq15QuiXXWqAU1ZXnlJcgeCCpDXXBB4SRJKkCFYMDJLFgBRTdiWKjLbWKs87c8sT6gKAKHveY/pu997PApBIHxl27posrNTW07yydnjvJChkIWY3aSdJcksRw5fsJckTL683gIQRrQ5PaQyTmz7Tl5AKHxCBQJg6LvfZXTXu8UxdTuEzHvQJndqS70RuvyAd0tOc3a0qkogTgheSpKcfLwtIACMNnoTw27qlWeIsQGYDYQHn+CKEKoAEPouHvSFkxsDBBFFDy8+26ktxdGgXX1BX3B4yEIss1V1M2fXkiSpwYKAMGDNBMI3AIVhHzitnCdsPmEaNniFXJ5kEPpv32EQGw4EwXTqS8EIXZzgQGQ/MG9nAJmL8XkBIXj2BQmCTQ0miE9ZG8VwADlwhvANQLfBzvQJ7JwMw+ambQfxnqUIfRcHYQB58SQLbrRCEAisR/deeaJDX+yJ0MUvuT+IkhRxAiFzMZwX8vQFWQEKCBxGK51lbXTWrhAAApuA2MbihJ2nT/Dy5ADBYWwuIAino2ru6Q598c12Ov81L0vzLKLP2UuWAQTnBfQCeXX1BQkIKgHXWQYgMFRAjD2nl8ytDhsI+zyRzSewPOkvnmQQwRcg3uax88TGeghCUK0RsrCvncwnQAkRYgfSTuZiYl5AEOuHwGHMsFY6k6GQ4IEzRLSxfKtDw/KUh09YIAwYCOJtFtx5ggUrNjEQgAQ7r+107kibNm/7Y5IA4oSQyxdADUIFqAYAYI9p1kanbSUreOB9IrY6TEV48QnTsC2fUIF4/gQLPv8WC1b0b16FqFSDj7WTWzFpXpDKEHZLWIbEKpKPQDIhtNJp1mJG2AlknwnE3HdynSfMFjbDsFUgQBUIY8cWByLNCxIQAYB3S5h8XJ0Q4L6AwGFMsRY6xcJ00q4QAJKhiAFjwsbBDucJ2SeCmT7By5MMYkc/qIMd3qoKgcGyTbvZ20o/vS/aVISByZdXJ4hpBwgOAUBgKIFI+0643aGaJ9Q+cUIBwlAFgGB6ed8/ayr6d2IV2JJrB/n0mTZyc8CrL7ipASG00EmGoQLiOk/k4xNQmowwFMGC2/sWghXHO7ckALeLbqE39VYyM243Zl6O8oHQTCcZjxssTG84StY7hJemLIOdyiewNIFpyyDK+/9bU97XS3791y37zX03HsbjMFi2kZmeVjJ9d60QmukNhpEBZBcAEftOrj6x02xhnYYtfIIFnzse1yre/lXWD7SVnmwnM69CqK65Vb/1s1Y69ZfmwOTXohShN/CSJCsBAfB1gjVTHkog0EFheVIPdgqfsAybHS4/fjX4XF+l6rq39GMtZDrGh7fpj1rprPLnB83ajT0tdPI8egKsWI7sEEAVAgTcDtNxFqZj9pIFCpFg8O7JMdhheXL6RHnfncPb+3pCZQMb/sXvooAHIDgvNNPph2E65fK9KratWZsKNQcm571BABAYCiDgEXn4xOHy4/8Llve/SZ47+dOiJGKznJQDwTJkrmTydjOZUv78IFIz+mSLNtEbpuP3ZTWELTUgBFivm5EJxNp3yuIT0MKWTBvrFbgdiMMXAhPDYTql/F5ViEw8EyYTA0IFCAIhiLXJWbJ2vkWMTUAw62yGXYptbC4wLeRGDL1B7QsTj5rJxEAoOK78+UELndBDZGxcqIGDCNExhqEEkgFCDHbB8r7SbmOzQQEgLiBsBh0i4/fC2nXlzw+gTQ6R6z1hMnYXIYh1lDXRa3ZTB4VYswTMFLw0Ha7oK702NlvyVc9xIDgzODsk7JKwHME6Ntusjdl2jPG89frkU0109FiIjH4VoqMMQwlEGuwMryjVNhaT43VtIeMx7+YsfCFExz5qpNdc2uTRPSF67XyIXgN1qBViGnZwe4m3sV5B4HEIxIs5izLE/aGJjj40FBG8ovj5AdvWpI2EGgMj8010xF6yyt8i2Mbq5X1P4bX4a1lZWZiMx+wwhAq4UQtz5kBEKbJKEhlZadKuKX9+8PqhqR82BUar5GTXbO//TfDZ/gr5Mf+2mQEOJBcEgOIEcY1JJYk10REWClwdbqAjyjbZT7jHDMhAnCUpNwTwhxEeZIQ1GTH8qIlcHQgFryjbZI+X9c09LEzGYnYQTiXAfcucTZN2QrjKmgiPRnKVQTQErtxrIsO9UfJxaW6JF+u/DAeyFgigCDuERjLM7HGFNZIrMw3a1epiXX/JndcOJNMXMkuSUw1OCHDfAGGsDcbty7Yuq+SSWMgPFCYjsfxLUnYIAKSBXLaikfhAPDNrJCMxPrzl9gV7ObIrwQlBALnEGsklXyFeiRhArA7Jsy9YZQlKkkg+quISayAifCBeaZSVlXEg+ftCLggApJ58YkStrxDvRBrJcIy3qvn5ggAilMBVwSEgjHpykdWShF+yvCLhQGQYokPK5gtySWowlSAgAJSLVvhAvNIwShYoxAkhty/kgsCBDLF6MuQrJA8eZVwhAMALBOELQg1CCTKEOjLEMHyF5EGknlyOCT9Qd0mZanBCgPsCAAeRYHWEhw9kTUBymbPdF9RqEBAQBqw+kLyBIAxnh+QFAihDDQIf94HkCUT4AQJxliRuzugJzpKEiXdbfSB5AbkY40CcELL7glvyVY/7QPIAUkcu7aoPXJwSc4NTDdnLkQqA8zEfSB5A4FD4XlUdudhTG0jcFWVp/SAQjA8kTyB4eL3+yVO1gaFjtYHEV5jMQqw+EMzwGtcGbWhPbfX584WAAefwgawRhP1lbFt9IBGqCyTm1wvGB2LP7Lru1dSMPllHLvTWksT9tYLxgawLgfrFr5PEM3UkMbAWKD4QdU4L8mgdTej1gcR4PmB8IAVJvftJeJuc6KkNXLjrBYwPxD2XBX3Ga5vsAylo2nOfLFeb7APJncMiHOHeJvtAipBur6fENrkukHiA/uID8Zq9Ih4nt8k+kCImOt9T1wWGXqkjiZ58X+cf72fAz8BGZeD/EDaGWW5qy8cAAAAASUVORK5CYII=;fontSize=14;" vertex="1" parent="1">
          <mxGeometry x="129" y="-147" width="78" height="78" as="geometry" />
        </mxCell>
        <mxCell id="TTbmBz7x6POpJ1Bqss9g-42" style="edgeStyle=orthogonalEdgeStyle;rounded=0;orthogonalLoop=1;jettySize=auto;html=1;strokeWidth=2;" edge="1" parent="1" source="TTbmBz7x6POpJ1Bqss9g-41" target="TTbmBz7x6POpJ1Bqss9g-40">
          <mxGeometry relative="1" as="geometry" />
        </mxCell>
        <mxCell id="TTbmBz7x6POpJ1Bqss9g-41" value="インフラ開発者" style="sketch=0;outlineConnect=0;fontColor=#232F3E;gradientColor=none;fillColor=#232F3D;strokeColor=none;dashed=0;verticalLabelPosition=bottom;verticalAlign=top;align=center;html=1;fontSize=14;fontStyle=0;aspect=fixed;pointerEvents=1;shape=mxgraph.aws4.users;" vertex="1" parent="1">
          <mxGeometry x="129" y="-327" width="78" height="78" as="geometry" />
        </mxCell>
        <mxCell id="08P-bwt3jYYdELrY3Ced-8" value="Simple Strage Service" style="points=[[0,0,0],[0.25,0,0],[0.5,0,0],[0.75,0,0],[1,0,0],[0,1,0],[0.25,1,0],[0.5,1,0],[0.75,1,0],[1,1,0],[0,0.25,0],[0,0.5,0],[0,0.75,0],[1,0.25,0],[1,0.5,0],[1,0.75,0]];outlineConnect=0;fontColor=#232F3E;fillColor=#7AA116;strokeColor=#ffffff;dashed=0;verticalLabelPosition=bottom;verticalAlign=top;align=center;html=1;fontSize=14;fontStyle=0;aspect=fixed;shape=mxgraph.aws4.resourceIcon;resIcon=mxgraph.aws4.s3;rounded=0;" parent="1" vertex="1">
          <mxGeometry x="407" y="-648" width="78" height="78" as="geometry" />
        </mxCell>
        <mxCell id="TTbmBz7x6POpJ1Bqss9g-78" style="edgeStyle=orthogonalEdgeStyle;rounded=0;orthogonalLoop=1;jettySize=auto;html=1;strokeWidth=2;" edge="1" parent="1" source="TTbmBz7x6POpJ1Bqss9g-49" target="TTbmBz7x6POpJ1Bqss9g-25">
          <mxGeometry relative="1" as="geometry">
            <Array as="points">
              <mxPoint x="966" y="-579" />
              <mxPoint x="966" y="-579" />
            </Array>
          </mxGeometry>
        </mxCell>
        <mxCell id="TTbmBz7x6POpJ1Bqss9g-49" value="Application Load Balancer" style="sketch=0;outlineConnect=0;fontColor=#232F3E;gradientColor=none;fillColor=#8C4FFF;strokeColor=none;dashed=0;verticalLabelPosition=bottom;verticalAlign=top;align=center;html=1;fontSize=14;fontStyle=0;aspect=fixed;pointerEvents=1;shape=mxgraph.aws4.application_load_balancer;" vertex="1" parent="1">
          <mxGeometry x="928" y="-730" width="78" height="78" as="geometry" />
        </mxCell>
        <mxCell id="TTbmBz7x6POpJ1Bqss9g-64" style="edgeStyle=orthogonalEdgeStyle;rounded=0;orthogonalLoop=1;jettySize=auto;html=1;strokeWidth=2;" edge="1" parent="1" source="TTbmBz7x6POpJ1Bqss9g-50" target="TTbmBz7x6POpJ1Bqss9g-11">
          <mxGeometry relative="1" as="geometry">
            <Array as="points">
              <mxPoint x="703" y="-915" />
              <mxPoint x="967" y="-915" />
            </Array>
          </mxGeometry>
        </mxCell>
        <mxCell id="TTbmBz7x6POpJ1Bqss9g-50" value="Internet" style="sketch=0;outlineConnect=0;fontColor=#232F3E;gradientColor=none;fillColor=#232F3D;strokeColor=none;dashed=0;verticalLabelPosition=bottom;verticalAlign=top;align=center;html=1;fontSize=12;fontStyle=0;aspect=fixed;pointerEvents=1;shape=mxgraph.aws4.internet;" vertex="1" parent="1">
          <mxGeometry x="665" y="-1062" width="78" height="48" as="geometry" />
        </mxCell>
        <mxCell id="TTbmBz7x6POpJ1Bqss9g-62" value="Simple Email Service" style="sketch=0;points=[[0,0,0],[0.25,0,0],[0.5,0,0],[0.75,0,0],[1,0,0],[0,1,0],[0.25,1,0],[0.5,1,0],[0.75,1,0],[1,1,0],[0,0.25,0],[0,0.5,0],[0,0.75,0],[1,0.25,0],[1,0.5,0],[1,0.75,0]];outlineConnect=0;fontColor=#232F3E;gradientColor=#4D72F3;gradientDirection=north;fillColor=#3334B9;strokeColor=#ffffff;dashed=0;verticalLabelPosition=bottom;verticalAlign=top;align=center;html=1;fontSize=14;fontStyle=0;aspect=fixed;shape=mxgraph.aws4.resourceIcon;resIcon=mxgraph.aws4.simple_email_service;" vertex="1" parent="1">
          <mxGeometry x="1238" y="-447" width="78" height="78" as="geometry" />
        </mxCell>
        <mxCell id="TTbmBz7x6POpJ1Bqss9g-63" style="edgeStyle=orthogonalEdgeStyle;rounded=0;orthogonalLoop=1;jettySize=auto;html=1;entryX=0;entryY=0.5;entryDx=0;entryDy=0;entryPerimeter=0;strokeWidth=2;" edge="1" parent="1" source="TTbmBz7x6POpJ1Bqss9g-36" target="TTbmBz7x6POpJ1Bqss9g-32">
          <mxGeometry relative="1" as="geometry" />
        </mxCell>
        <mxCell id="TTbmBz7x6POpJ1Bqss9g-44" value="&lt;font&gt;Elastic Container Service&lt;/font&gt;" style="sketch=0;points=[[0,0,0],[0.25,0,0],[0.5,0,0],[0.75,0,0],[1,0,0],[0,1,0],[0.25,1,0],[0.5,1,0],[0.75,1,0],[1,1,0],[0,0.25,0],[0,0.5,0],[0,0.75,0],[1,0.25,0],[1,0.5,0],[1,0.75,0]];outlineConnect=0;fontColor=#232F3E;fillColor=#ED7100;strokeColor=#ffffff;dashed=0;verticalLabelPosition=bottom;verticalAlign=top;align=center;html=1;fontSize=14;fontStyle=0;aspect=fixed;shape=mxgraph.aws4.resourceIcon;resIcon=mxgraph.aws4.ecs;" vertex="1" parent="1">
          <mxGeometry x="818" y="-495.5" width="78" height="78" as="geometry" />
        </mxCell>
        <mxCell id="08P-bwt3jYYdELrY3Ced-11" value="Fargate" style="sketch=0;points=[[0,0,0],[0.25,0,0],[0.5,0,0],[0.75,0,0],[1,0,0],[0,1,0],[0.25,1,0],[0.5,1,0],[0.75,1,0],[1,1,0],[0,0.25,0],[0,0.5,0],[0,0.75,0],[1,0.25,0],[1,0.5,0],[1,0.75,0]];outlineConnect=0;fontColor=#232F3E;fillColor=#ED7100;strokeColor=#ffffff;dashed=0;verticalLabelPosition=bottom;verticalAlign=top;align=center;html=1;fontSize=14;fontStyle=0;aspect=fixed;shape=mxgraph.aws4.resourceIcon;resIcon=mxgraph.aws4.fargate;container=0;" parent="1" vertex="1">
          <mxGeometry x="828" y="-392" width="39" height="39" as="geometry" />
        </mxCell>
        <mxCell id="TTbmBz7x6POpJ1Bqss9g-72" value="&lt;span style=&quot;color: rgb(26, 28, 30); font-family: &amp;quot;DM Mono&amp;quot;, monospace; text-align: left; background-color: rgb(255, 255, 255);&quot;&gt;impierrot.click&lt;/span&gt;" style="html=1;whiteSpace=wrap;fontSize=16;strokeColor=none;" vertex="1" parent="1">
          <mxGeometry x="377" y="-956" width="150" height="30" as="geometry" />
        </mxCell>
        <mxCell id="TTbmBz7x6POpJ1Bqss9g-73" value="&lt;span style=&quot;color: rgb(26, 28, 30); font-family: &amp;quot;DM Mono&amp;quot;, monospace; text-align: left; background-color: rgb(255, 255, 255);&quot;&gt;api.impierrot.click&lt;/span&gt;" style="html=1;whiteSpace=wrap;fontSize=16;strokeColor=none;" vertex="1" parent="1">
          <mxGeometry x="896" y="-956" width="150" height="30" as="geometry" />
        </mxCell>
        <mxCell id="TTbmBz7x6POpJ1Bqss9g-22" value="CloudWatch" style="sketch=0;points=[[0,0,0],[0.25,0,0],[0.5,0,0],[0.75,0,0],[1,0,0],[0,1,0],[0.25,1,0],[0.5,1,0],[0.75,1,0],[1,1,0],[0,0.25,0],[0,0.5,0],[0,0.75,0],[1,0.25,0],[1,0.5,0],[1,0.75,0]];points=[[0,0,0],[0.25,0,0],[0.5,0,0],[0.75,0,0],[1,0,0],[0,1,0],[0.25,1,0],[0.5,1,0],[0.75,1,0],[1,1,0],[0,0.25,0],[0,0.5,0],[0,0.75,0],[1,0.25,0],[1,0.5,0],[1,0.75,0]];outlineConnect=0;fontColor=#232F3E;fillColor=#E7157B;strokeColor=#ffffff;dashed=0;verticalLabelPosition=bottom;verticalAlign=top;align=center;html=1;fontSize=14;fontStyle=0;aspect=fixed;shape=mxgraph.aws4.resourceIcon;resIcon=mxgraph.aws4.cloudwatch_2;" vertex="1" parent="1">
          <mxGeometry x="1238" y="-651" width="78" height="78" as="geometry" />
        </mxCell>
        <mxCell id="TTbmBz7x6POpJ1Bqss9g-77" style="edgeStyle=orthogonalEdgeStyle;rounded=0;orthogonalLoop=1;jettySize=auto;html=1;strokeWidth=2;" edge="1" parent="1" source="TTbmBz7x6POpJ1Bqss9g-25">
          <mxGeometry relative="1" as="geometry">
            <mxPoint x="965" y="-170" as="targetPoint" />
          </mxGeometry>
        </mxCell>
        <mxCell id="TTbmBz7x6POpJ1Bqss9g-88" style="edgeStyle=orthogonalEdgeStyle;rounded=0;orthogonalLoop=1;jettySize=auto;html=1;strokeWidth=2;" edge="1" parent="1" source="TTbmBz7x6POpJ1Bqss9g-11" target="TTbmBz7x6POpJ1Bqss9g-49">
          <mxGeometry relative="1" as="geometry" />
        </mxCell>
        <mxCell id="TTbmBz7x6POpJ1Bqss9g-11" value="Internet Gateway" style="sketch=0;outlineConnect=0;fontColor=#232F3E;gradientColor=none;fillColor=#8C4FFF;strokeColor=none;dashed=0;verticalLabelPosition=bottom;verticalAlign=top;align=center;html=1;fontSize=14;fontStyle=0;aspect=fixed;pointerEvents=1;shape=mxgraph.aws4.internet_gateway;" vertex="1" parent="1">
          <mxGeometry x="928" y="-844" width="78" height="78" as="geometry" />
        </mxCell>
        <mxCell id="TTbmBz7x6POpJ1Bqss9g-84" style="edgeStyle=orthogonalEdgeStyle;rounded=0;orthogonalLoop=1;jettySize=auto;html=1;entryX=0;entryY=0.5;entryDx=0;entryDy=0;entryPerimeter=0;strokeWidth=2;" edge="1" parent="1" source="TTbmBz7x6POpJ1Bqss9g-32" target="TTbmBz7x6POpJ1Bqss9g-44">
          <mxGeometry relative="1" as="geometry" />
        </mxCell>
        <mxCell id="TTbmBz7x6POpJ1Bqss9g-86" value="Image" style="sketch=0;outlineConnect=0;fontColor=#232F3E;gradientColor=none;fillColor=#ED7100;strokeColor=none;dashed=0;verticalLabelPosition=bottom;verticalAlign=top;align=center;html=1;fontSize=14;fontStyle=0;aspect=fixed;pointerEvents=1;shape=mxgraph.aws4.container_registry_image;" vertex="1" parent="1">
          <mxGeometry x="562" y="-476" width="39" height="39" as="geometry" />
        </mxCell>
        <mxCell id="TTbmBz7x6POpJ1Bqss9g-87" style="edgeStyle=orthogonalEdgeStyle;rounded=0;orthogonalLoop=1;jettySize=auto;html=1;entryX=0;entryY=0.5;entryDx=0;entryDy=0;entryPerimeter=0;strokeWidth=2;" edge="1" parent="1" source="TTbmBz7x6POpJ1Bqss9g-36" target="08P-bwt3jYYdELrY3Ced-8">
          <mxGeometry relative="1" as="geometry">
            <Array as="points">
              <mxPoint x="264" y="-493" />
              <mxPoint x="264" y="-609" />
            </Array>
          </mxGeometry>
        </mxCell>
        <mxCell id="TTbmBz7x6POpJ1Bqss9g-91" style="edgeStyle=orthogonalEdgeStyle;rounded=0;orthogonalLoop=1;jettySize=auto;html=1;entryX=0;entryY=0.5;entryDx=0;entryDy=0;entryPerimeter=0;strokeWidth=2;" edge="1" parent="1" source="TTbmBz7x6POpJ1Bqss9g-25" target="TTbmBz7x6POpJ1Bqss9g-62">
          <mxGeometry relative="1" as="geometry">
            <Array as="points">
              <mxPoint x="1164" y="-359" />
              <mxPoint x="1164" y="-408" />
            </Array>
          </mxGeometry>
        </mxCell>
      </root>
    </mxGraphModel>
  </diagram>
</mxfile>
